<?xml version="1.0" encoding="UTF-8"?> <!-- Generator: Adobe Illustrator 25.2.2, SVG Export Plug-In . SVG Version: 6.00 Build 0) --> <svg width="1652" height="838" xmlns="http://www.w3.org/2000/svg" xmlns:xlink="http://www.w3.org/1999/xlink" version="1.1" id="Layer_1" x="0px" y="0px" viewBox="0 0 1652.12 837.92" style="enable-background:new 0 0 1652.12 837.92;" xml:space="preserve"> <style type="text/css"> .st0{fill:#939598;} .st1{fill:#141D45;} .st2{fill:url(#SVGID_1_);} </style> <path class="st0" d="M73.21,617.18l26.74,0.09c9.36,0,17.03,7.67,17.03,17.12c0,4.72-1.96,9.09-5.08,12.12 c5.97,2.76,10.16,8.74,10.16,15.69c0,9.54-7.76,17.21-17.21,17.21l-31.65,0.09V617.18z M99.96,645c5.88,0,10.61-4.73,10.61-10.61 c0-5.97-4.72-10.7-10.61-10.7H79.63V645H99.96z M104.86,672.99c5.97,0,10.79-4.81,10.79-10.79c0-5.88-4.81-10.78-10.79-10.78H79.63 v21.57H104.86z"></path> <path class="st0" d="M132.68,656.32v-39.13h6.42v39.13c0,10.16,8.29,18.01,18.45,18.01c10.16,0,18.45-7.85,18.45-18.01v-39.13h6.42 v39.13c0,13.73-11.14,24.42-24.87,24.42C143.83,680.74,132.68,670.05,132.68,656.32z"></path> <path class="st0" d="M195.72,617.18h6.42v62.31h-6.42V617.18z"></path> <path class="st0" d="M214.53,617.18h6.42v55.89h33.61v6.42h-40.03V617.18z"></path> <path class="st0" d="M266.95,617.18h19.43c17.12,0,31.11,13.91,31.11,31.11c0,17.12-14,31.11-31.11,31.11l-19.43,0.09V617.18z M286.38,672.99c13.64,0,24.69-11.05,24.69-24.69c0-13.64-11.05-24.69-24.69-24.69h-13.02v49.39H286.38z"></path> <path class="st0" d="M328.11,617.18h6.42v62.31h-6.42V617.18z"></path> <path class="st0" d="M346.93,617.18h7.13l35.75,51.97v-51.97h6.42v62.31h-7.13l-35.75-51.97v51.97h-6.42V617.18z"></path> <path class="st0" d="M407.73,648.56c0-17.74,12.93-32.18,28.79-32.18c10.07,0,19.34,5.71,24.6,15.42l-5.62,3.03 c-4.19-7.58-11.23-12.03-18.99-12.03c-12.3,0-22.38,11.5-22.38,25.76c0,14.17,10.07,25.76,22.38,25.76c2.32,0,4.64-0.45,6.78-1.25 c6.77-2.5,11.68-8.92,12.57-16.49l0.36-2.76v-2.23h-19.7v-6.42h26.12v34.32h-6.42v-8.02c-2.85,3.39-6.51,6.15-10.7,7.67 c-2.85,1.07-5.97,1.6-9,1.6C420.66,680.74,407.73,666.3,407.73,648.56z"></path> <path class="st0" d="M518.11,677c-6.33-3.92-10.34-10.52-10.34-17.12h6.42c0,4.46,2.85,8.91,7.31,11.68 c5.44,3.39,11.95,3.57,17.65,0.8c4.64-2.23,9.18-6.24,8.02-12.21c-0.98-4.9-3.92-7.31-11.41-8.65c-14.35-2.59-19.25-4.37-23.27-9.54 c-4.99-6.33-3.21-16.22,4.19-21.39c7.49-5.35,16.85-5.53,24.6-1.51c6.69,3.48,10.43,9.54,10.43,16.76h-6.42 c0-6.51-4.37-9.72-6.95-11.05c-5.97-3.12-12.84-2.76-17.92,0.98c-4.55,3.3-5.62,8.91-2.59,12.57c2.85,3.57,7.13,4.72,19.17,6.86 c7.13,1.25,14.53,4.1,16.4,13.73c1.52,7.84-2.94,15.15-11.41,19.25C533.97,682.08,525.15,681.46,518.11,677z"></path> <path class="st0" d="M566.16,617.18h45.46v6.42h-39.05V645h31.91v6.42h-31.91v21.66h39.05v6.42h-45.46V617.18z"></path> <path class="st0" d="M624.02,617.18h26.74c9.36,0,17.03,7.76,17.03,17.2c0,9.45-7.67,17.12-17.03,17.12h-0.36l19.34,27.99h-7.84 l-19.26-27.99h-12.21v27.99h-6.42V617.18z M650.77,645.08c5.88,0,10.61-4.81,10.61-10.7c0-5.88-4.72-10.7-10.61-10.7h-20.33v21.39 H650.77z"></path> <path class="st0" d="M675.02,617.18h6.86l19.88,53.66l19.97-53.66h6.86l-23.18,62.31h-7.22L675.02,617.18z"></path> <path class="st0" d="M740.11,617.18h6.42v62.31h-6.42V617.18z"></path> <path class="st0" d="M758.03,648.56c0-17.74,12.93-32.18,28.79-32.18c10.07,0,19.34,5.71,24.6,15.42l-5.62,3.03 c-4.19-7.58-11.23-12.03-18.99-12.03c-12.3,0-22.38,11.5-22.38,25.76c0,14.17,10.07,25.76,22.38,25.76c7.76,0,14.8-4.55,18.9-12.12 l5.71,3.12c-5.35,9.63-14.53,15.42-24.6,15.42C770.95,680.74,758.03,666.3,758.03,648.56z"></path> <path class="st0" d="M822.93,617.18h45.46v6.42h-39.05V645h31.91v6.42h-31.91v21.66h39.05v6.42h-45.46V617.18z"></path> <path class="st0" d="M913.51,648.56c0-17.74,12.93-32.18,28.79-32.18c10.07,0,19.34,5.71,24.6,15.42l-5.62,3.03 c-4.19-7.58-11.23-12.03-18.99-12.03c-12.3,0-22.38,11.5-22.38,25.76c0,14.17,10.07,25.76,22.38,25.76c7.76,0,14.8-4.55,18.9-12.12 l5.71,3.12c-5.35,9.63-14.53,15.42-24.6,15.42C926.44,680.74,913.51,666.3,913.51,648.56z"></path> <path class="st0" d="M975.75,648.65c0-17.83,13.28-32.27,29.51-32.27c16.31,0,29.6,14.44,29.6,32.27c0,17.83-13.28,32.09-29.6,32.09 C989.03,680.74,975.75,666.48,975.75,648.65z M1028.43,648.65c0-14.26-10.43-25.85-23.18-25.85s-23.09,11.59-23.09,25.85 c0,14.35,10.34,25.67,23.09,25.67S1028.43,663,1028.43,648.65z"></path> <path class="st0" d="M1046.36,617.18h7.13l35.75,51.97v-51.97h6.42v62.31h-7.13l-35.75-51.97v51.97h-6.42V617.18z"></path> <path class="st0" d="M1129.45,623.6h-22.29v-6.42h50.9v6.42h-22.2v55.89h-6.42V623.6z"></path> <path class="st0" d="M1169.57,617.18h26.74c9.36,0,17.03,7.76,17.03,17.2c0,9.45-7.67,17.12-17.03,17.12h-0.36l19.34,27.99h-7.85 l-19.25-27.99h-12.21v27.99h-6.42V617.18z M1196.31,645.08c5.88,0,10.61-4.81,10.61-10.7c0-5.88-4.73-10.7-10.61-10.7h-20.32v21.39 H1196.31z"></path> <path class="st0" d="M1250.97,617.18h8.91l23.27,62.31h-6.86l-5.88-15.6h-30.04l-5.79,15.6h-6.86L1250.97,617.18z M1268.09,657.48 l-12.66-33.96l-12.66,33.96H1268.09z"></path> <path class="st0" d="M1289.31,648.56c0-17.74,12.93-32.18,28.79-32.18c10.07,0,19.34,5.71,24.6,15.42l-5.62,3.03 c-4.19-7.58-11.23-12.03-18.99-12.03c-12.3,0-22.38,11.5-22.38,25.76c0,14.17,10.07,25.76,22.38,25.76c7.76,0,14.8-4.55,18.9-12.12 l5.71,3.12c-5.35,9.63-14.53,15.42-24.6,15.42C1302.23,680.74,1289.31,666.3,1289.31,648.56z"></path> <path class="st0" d="M1372.94,623.6h-22.29v-6.42h50.9v6.42h-22.2v55.89h-6.42V623.6z"></path> <path class="st0" d="M1408.6,648.65c0-17.83,13.28-32.27,29.51-32.27c16.31,0,29.6,14.44,29.6,32.27c0,17.83-13.28,32.09-29.6,32.09 C1421.88,680.74,1408.6,666.48,1408.6,648.65z M1461.29,648.65c0-14.26-10.43-25.85-23.18-25.85s-23.09,11.59-23.09,25.85 c0,14.35,10.34,25.67,23.09,25.67S1461.29,663,1461.29,648.65z"></path> <path class="st0" d="M1479.21,617.18h26.74c9.36,0,17.03,7.76,17.03,17.2c0,9.45-7.67,17.12-17.03,17.12h-0.36l19.34,27.99h-7.85 l-19.25-27.99h-12.21v27.99h-6.42V617.18z M1505.95,645.08c5.88,0,10.61-4.81,10.61-10.7c0-5.88-4.73-10.7-10.61-10.7h-20.32v21.39 H1505.95z"></path> <path class="st0" d="M1544.12,677c-6.33-3.92-10.34-10.52-10.34-17.12h6.42c0,4.46,2.85,8.91,7.31,11.68 c5.44,3.39,11.95,3.57,17.65,0.8c4.64-2.23,9.18-6.24,8.02-12.21c-0.98-4.9-3.92-7.31-11.41-8.65c-14.35-2.59-19.26-4.37-23.27-9.54 c-4.99-6.33-3.21-16.22,4.19-21.39c7.49-5.35,16.85-5.53,24.6-1.51c6.69,3.48,10.43,9.54,10.43,16.76h-6.42 c0-6.51-4.37-9.72-6.95-11.05c-5.97-3.12-12.84-2.76-17.92,0.98c-4.55,3.3-5.62,8.91-2.59,12.57c2.85,3.57,7.13,4.72,19.17,6.86 c7.13,1.25,14.53,4.1,16.4,13.73c1.51,7.84-2.94,15.15-11.41,19.25C1559.98,682.08,1551.16,681.46,1544.12,677z"></path> <path class="st0" d="M96.48,701.13h8.91l23.27,62.31h-6.86l-5.88-15.6H85.87l-5.79,15.6h-6.86L96.48,701.13z M113.6,741.43 l-12.66-33.96l-12.66,33.96H113.6z"></path> <path class="st0" d="M146.86,760.95c-6.33-3.92-10.34-10.52-10.34-17.12h6.42c0,4.46,2.85,8.91,7.31,11.68 c5.44,3.39,11.95,3.57,17.65,0.8c4.64-2.23,9.18-6.24,8.02-12.21c-0.98-4.9-3.92-7.31-11.41-8.65c-14.35-2.59-19.25-4.37-23.27-9.54 c-4.99-6.33-3.21-16.22,4.19-21.39c7.49-5.35,16.85-5.53,24.6-1.52c6.69,3.48,10.43,9.54,10.43,16.76h-6.42 c0-6.51-4.37-9.72-6.95-11.05c-5.97-3.12-12.84-2.76-17.92,0.98c-4.55,3.3-5.62,8.91-2.59,12.57c2.85,3.57,7.13,4.72,19.17,6.86 c7.13,1.25,14.53,4.1,16.4,13.73c1.52,7.84-2.94,15.15-11.41,19.25C162.72,766.03,153.9,765.41,146.86,760.95z"></path> <path class="st0" d="M206.06,760.95c-6.33-3.92-10.34-10.52-10.34-17.12h6.42c0,4.46,2.85,8.91,7.31,11.68 c5.44,3.39,11.95,3.57,17.65,0.8c4.64-2.23,9.18-6.24,8.02-12.21c-0.98-4.9-3.92-7.31-11.41-8.65c-14.35-2.59-19.25-4.37-23.27-9.54 c-4.99-6.33-3.21-16.22,4.19-21.39c7.49-5.35,16.85-5.53,24.6-1.52c6.69,3.48,10.43,9.54,10.43,16.76h-6.42 c0-6.51-4.37-9.72-6.95-11.05c-5.97-3.12-12.84-2.76-17.92,0.98c-4.55,3.3-5.62,8.91-2.59,12.57c2.85,3.57,7.13,4.72,19.17,6.86 c7.13,1.25,14.53,4.1,16.4,13.73c1.52,7.84-2.94,15.15-11.41,19.25C221.92,766.03,213.1,765.41,206.06,760.95z"></path> <path class="st0" d="M254.02,732.6c0-17.83,13.28-32.27,29.51-32.27c16.31,0,29.6,14.44,29.6,32.27c0,17.83-13.28,32.09-29.6,32.09 C267.31,764.69,254.02,750.43,254.02,732.6z M306.71,732.6c0-14.26-10.43-25.85-23.18-25.85c-12.75,0-23.09,11.59-23.09,25.85 c0,14.35,10.34,25.67,23.09,25.67C296.28,758.28,306.71,746.95,306.71,732.6z"></path> <path class="st0" d="M324.55,732.51c0-17.74,12.93-32.18,28.79-32.18c10.07,0,19.34,5.71,24.6,15.42l-5.62,3.03 c-4.19-7.58-11.23-12.03-18.99-12.03c-12.3,0-22.38,11.5-22.38,25.76c0,14.17,10.07,25.76,22.38,25.76c7.76,0,14.8-4.55,18.9-12.12 l5.71,3.12c-5.35,9.63-14.53,15.42-24.6,15.42C337.47,764.69,324.55,750.25,324.55,732.51z"></path> <path class="st0" d="M390.26,701.13h6.42v62.31h-6.42V701.13z"></path> <path class="st0" d="M433.14,701.13h8.91l23.27,62.31h-6.86l-5.88-15.6h-30.04l-5.79,15.6h-6.86L433.14,701.13z M450.25,741.43 l-12.66-33.96l-12.66,33.96H450.25z"></path> <path class="st0" d="M488.32,707.55h-22.29v-6.42h50.9v6.42h-22.2v55.89h-6.42V707.55z"></path> <path class="st0" d="M529.25,701.13h6.42v62.31h-6.42V701.13z"></path> <path class="st0" d="M547.97,732.6c0-17.83,13.28-32.27,29.51-32.27c16.31,0,29.6,14.44,29.6,32.27c0,17.83-13.28,32.09-29.6,32.09 C561.26,764.69,547.97,750.43,547.97,732.6z M600.66,732.6c0-14.26-10.43-25.85-23.18-25.85s-23.09,11.59-23.09,25.85 c0,14.35,10.34,25.67,23.09,25.67S600.66,746.95,600.66,732.6z"></path> <path class="st0" d="M619.39,701.13h7.13l35.75,51.97v-51.97h6.42v62.31h-7.13l-35.75-51.97v51.97h-6.42V701.13z"></path> <path class="st0" d="M715.41,732.6c0-17.83,13.28-32.27,29.51-32.27c16.31,0,29.6,14.44,29.6,32.27c0,17.83-13.28,32.09-29.6,32.09 C728.69,764.69,715.41,750.43,715.41,732.6z M768.09,732.6c0-14.26-10.43-25.85-23.18-25.85c-12.75,0-23.09,11.59-23.09,25.85 c0,14.35,10.34,25.67,23.09,25.67C757.66,758.28,768.09,746.95,768.09,732.6z"></path> <path class="st0" d="M786.82,701.13h43.59v6.42h-37.17v21.39h30.04v6.42h-30.04v28.08h-6.42V701.13z"></path> <path class="st0" d="M900.4,701.13h8.91l23.27,62.31h-6.86l-5.88-15.6H889.8l-5.79,15.6h-6.86L900.4,701.13z M917.52,741.43 l-12.66-33.96l-12.66,33.96H917.52z"></path> <path class="st0" d="M941.33,740.27v-39.13h6.42v39.13c0,10.16,8.29,18.01,18.45,18.01c10.16,0,18.45-7.85,18.45-18.01v-39.13h6.42 v39.13c0,13.73-11.14,24.42-24.87,24.42C952.47,764.69,941.33,754,941.33,740.27z"></path> <path class="st0" d="M1013.72,760.95c-6.33-3.92-10.34-10.52-10.34-17.12h6.42c0,4.46,2.85,8.91,7.31,11.68 c5.44,3.39,11.95,3.57,17.65,0.8c4.64-2.23,9.18-6.24,8.02-12.21c-0.98-4.9-3.92-7.31-11.41-8.65c-14.35-2.59-19.26-4.37-23.27-9.54 c-4.99-6.33-3.21-16.22,4.19-21.39c7.49-5.35,16.85-5.53,24.6-1.52c6.69,3.48,10.43,9.54,10.43,16.76h-6.42 c0-6.51-4.37-9.72-6.95-11.05c-5.97-3.12-12.84-2.76-17.92,0.98c-4.55,3.3-5.62,8.91-2.59,12.57c2.85,3.57,7.13,4.72,19.17,6.86 c7.13,1.25,14.53,4.1,16.4,13.73c1.52,7.84-2.94,15.15-11.41,19.25C1029.59,766.03,1020.77,765.41,1013.72,760.95z"></path> <path class="st0" d="M1078.63,707.55h-22.29v-6.42h50.9v6.42h-22.2v55.89h-6.42V707.55z"></path> <path class="st0" d="M1119.56,701.13h26.74c9.36,0,17.03,7.76,17.03,17.2s-7.67,17.12-17.03,17.12h-0.36l19.34,27.99h-7.85 l-19.25-27.99h-12.21v27.99h-6.42V701.13z M1146.3,729.04c5.88,0,10.61-4.81,10.61-10.7c0-5.88-4.73-10.7-10.61-10.7h-20.32v21.39 H1146.3z"></path> <path class="st0" d="M1201.75,701.13h8.91l23.27,62.31h-6.86l-5.88-15.6h-30.04l-5.79,15.6h-6.86L1201.75,701.13z M1218.87,741.43 l-12.66-33.96l-12.66,33.96H1218.87z"></path> <path class="st0" d="M1246.25,701.13h6.42v55.89h33.61v6.42h-40.03V701.13z"></path> <path class="st0" d="M1299.47,701.13h6.42v62.31h-6.42V701.13z"></path> <path class="st0" d="M1342.35,701.13h8.91l23.27,62.31h-6.86l-5.88-15.6h-30.04l-5.79,15.6h-6.86L1342.35,701.13z M1359.47,741.43 l-12.66-33.96l-12.66,33.96H1359.47z"></path> <path class="st0" d="M1421.26,701.13h6.42v55.89h33.61v6.42h-40.03V701.13z"></path> <path class="st0" d="M1484.29,707.55H1462v-6.42h50.9v6.42h-22.2v55.89h-6.42V707.55z"></path> <path class="st0" d="M1525.21,701.13h19.43c17.12,0,31.11,13.91,31.11,31.11c0,17.12-14,31.11-31.11,31.11l-19.43,0.09V701.13z M1544.65,756.94c13.64,0,24.69-11.05,24.69-24.69c0-13.64-11.05-24.69-24.69-24.69h-13.02v49.39H1544.65z"></path> <path class="st1" d="M546.91,378.36h-83.08v54.18h83.08c15.11,0,27.26-11.82,27.26-26.93C574.17,390.51,562.02,378.36,546.91,378.36 z M627.03,503.8c0,36.12-29.23,65.68-65.35,65.68H422.78V339.94h132.67c34.48,0,62.39,27.91,62.39,62.39 c0,23.97-17.73,40.39-27.26,46.3C603.06,454.54,627.03,472.6,627.03,503.8z M584.67,500.19c0-17.08-13.79-30.54-30.87-30.54h-89.97 v61.41h89.97C570.88,531.06,584.67,517.26,584.67,500.19z M829.43,503.39c0,49.87-46.98,66.28-95.57,66.28 c-33.14,0-62.42-7.72-92.02-24.78l20.92-33.14c22.84,12.55,48.58,20.59,72.72,20.59c30.89,0,50.84-8.04,50.84-26.71 c0-20.59-27.35-28.32-57.27-37.65c-38.93-11.91-82.69-25.42-82.69-70.79c0-18.02,7.72-33.14,22.52-44.08 c16.09-11.58,39.9-17.7,69.18-17.7c30.57,0,57.27,7.72,86.87,24.78l-20.27,32.18c-23.17-12.87-44.73-19.95-68.54-19.95 c-31.53,0-46.66,9.65-46.66,23.17c0,21.24,27.99,28.64,58.88,38.29C786.32,445.8,829.43,460.6,829.43,503.39z M1051.88,539.11 c-21.88,20.27-50.52,31.85-80.44,31.85c-65.32,0-118.41-53.41-118.41-118.73s53.09-118.41,118.41-118.41 c29.92,0,58.56,10.94,80.44,31.21l-28.32,30.57c-14.16-13.19-32.82-20.59-52.12-20.59c-42.47,0-76.9,34.75-76.9,77.22 c0,42.47,34.43,77.22,76.9,77.22c19.63,0,38.29-7.4,52.45-20.59L1051.88,539.11z M1192.95,378.03l-40.39,101.47h49.92l15.43,38.42 h-80.78l-20.69,51.56h-43.02l91.95-229.54h55.5l91.95,229.54h-43.02L1192.95,378.03z M1459.05,378.15l-40.39,101.47h49.92 l15.43,38.42h-80.78l-20.69,51.56h-43.02l91.95-229.54h55.5l91.95,229.54h-43.02L1459.05,378.15z"></path> <linearGradient id="SVGID_1_" gradientUnits="userSpaceOnUse" x1="74.3973" y1="321.0338" x2="395.5897" y2="321.0338"> <stop offset="0.0267" style="stop-color:#EE2624"></stop> <stop offset="0.1924" style="stop-color:#EE3624"></stop> <stop offset="0.486" style="stop-color:#F15626"></stop> <stop offset="0.5554" style="stop-color:#F15E27"></stop> <stop offset="0.7144" style="stop-color:#F68830"></stop> <stop offset="0.8521" style="stop-color:#FAA639"></stop> <stop offset="0.9225" style="stop-color:#FCB23D"></stop> </linearGradient> <path class="st2" d="M395.57,479.77V190.35l-91.42,34.22v255.2H395.57z M304.17,516.88v51.87h91.42V517L304.17,516.88z M74.41,479.8 h91.43V276.16l-91.42,34.27L74.41,479.8 M74.4,516.88l0,51.87h91.42l0-51.87H74.4z M281.22,516.88v51.97H189.8v-51.97H281.22z M189.8,479.77V107.48l91.42-34.27v406.55H189.8z"></path> </svg> 