<svg width="594" height="120" id="Layer_1" data-name="Layer 1" xmlns="http://www.w3.org/2000/svg" viewBox="0 0 594 120"><defs><style>.cls-1{fill:#221e53}</style></defs><path class="cls-1" d="M.52 59.89C.52 26 25.71 0 60.45 0c20.91 0 39.35 10.37 49.4 26.68L87.12 39.8c-5.1-8.89-15-14.16-26.67-14.16-20.45 0-33.59 13.66-33.59 34.25S40 94.13 60.45 94.13c11.69 0 21.73-5.27 26.67-14.16l22.73 13.18c-9.88 16.3-28.32 26.67-49.4 26.67C25.71 119.82.52 93.8.52 59.89zm201.24 32.27v25.35h-72.44V2.26h71.62v25.35h-45.28v19.1h41.16v25h-41.16v20.45zm142.69 25.35H318.1v-67L288.3 99.4h-3l-29.77-48.9v67h-26.34V2.26h26.34l31.29 51.2 31.28-51.2h26.35zM593.48 2.26v115.25h-26.34V71.74h-36.23v45.77h-26.34V2.26h26.34v44.12h36.23V2.26z"/><path fill="#202858" d="M458.43 60.11v.01h26.35v-.01h-26.35z"/><path class="cls-1" d="M424.85 94.36c-18.78 0-33.59-13.66-33.59-34.25s14.81-34.24 33.59-34.24a33.55 33.55 0 0122.92 8.59L466 16.25a59.94 59.94 0 10-.08 87.8l-18.23-18.21a33.6 33.6 0 01-22.84 8.52z"/><path d="M484.78 60.11h-26.35c0 10.83-4.12 19.72-10.74 25.73l18.21 18.21a59.52 59.52 0 0018.88-43.94z" fill="#25b057"/><path d="M458.43 60.11h26.35A59.51 59.51 0 00466 16.25l-18.23 18.21c6.57 6.01 10.66 14.87 10.66 25.65z" fill="#86cebd"/></svg>
