<svg width="200" height="64" viewBox="0 0 200 64" fill="none" xmlns="http://www.w3.org/2000/svg">
<g clip-path="url(#clip0_2_2)" fill="none">
<path d="M22.3848 0L8.74867 7.87482L22.3848 15.7496L0 28.6846V44.4343L49.6774 15.7496L22.3848 0Z" fill="rgb(239, 65, 35)"></path>
<path d="M128.73 3.18041H119.372V10.4456H128.73V3.18041Z" fill="rgb(0, 5, 29)"></path>
<path d="M56.0484 43.5706C53.7723 42.6663 52.0957 41.4164 51.0288 39.8212C49.9619 38.2259 49.4335 36.3562 49.4335 34.2224H57.8062C57.8062 35.2487 58.0094 36.1022 58.4261 36.7728C58.8325 37.4536 59.5336 37.9719 60.5192 38.3377C61.5049 38.7034 62.8563 38.8863 64.5837 38.8863C66.1383 38.8863 67.4186 38.7441 68.4042 38.4596C69.3898 38.1751 70.1011 37.7585 70.5279 37.2301C70.9546 36.7017 71.1782 36.0413 71.1782 35.2589C71.1782 34.5171 70.9343 33.9582 70.4364 33.562C69.9487 33.1758 69.085 32.871 67.8555 32.6678C66.626 32.4646 64.6345 32.2613 61.8808 32.048C59.1272 31.8447 56.8612 31.4586 55.0831 30.9099C53.2947 30.3511 51.9128 29.5179 50.9272 28.39C49.9416 27.2621 49.4538 25.7176 49.4538 23.7464C49.4538 21.6126 50.1245 19.7734 51.4556 18.2391C52.7867 16.7048 54.6157 15.5261 56.9324 14.7335C59.2491 13.9308 61.8198 13.5345 64.6548 13.5345C67.9368 13.5345 70.66 13.941 72.8141 14.764C74.9682 15.5871 76.5635 16.8064 77.6101 18.422C78.6567 20.0478 79.1749 22.0393 79.1749 24.4272H70.9241C70.8835 23.3196 70.6701 22.4153 70.2738 21.7142C69.8877 21.0131 69.2476 20.4847 68.3636 20.1189C67.4795 19.7531 66.2805 19.5702 64.7666 19.5702C63.4151 19.5702 62.2873 19.7124 61.3829 19.997C60.4786 20.2815 59.8181 20.6981 59.3812 21.2264C58.9544 21.765 58.7309 22.3746 58.7309 23.0757C58.7309 23.8988 58.9239 24.5085 59.3202 24.9251C59.7063 25.3315 60.4989 25.6668 61.6877 25.9107C62.8766 26.1545 64.7665 26.3781 67.3475 26.5915C70.223 26.8353 72.5906 27.2113 74.4602 27.699C76.3298 28.1868 77.8032 28.9895 78.8904 30.097C79.9776 31.2046 80.5263 32.7592 80.5263 34.7711C80.5263 36.9049 79.9167 38.7339 78.7075 40.2479C77.4983 41.7619 75.71 42.9203 73.3526 43.723C70.9953 44.5257 68.0892 44.922 64.6446 44.922C61.2 44.922 58.3346 44.4749 56.0585 43.5706H56.0484Z" fill="rgb(0, 5, 29)"></path>
<path d="M114.759 25.423V44.4343H105.401V27.5161C105.401 26.0834 105.197 24.9149 104.801 24.0106C104.405 23.1062 103.826 22.4356 103.074 21.9784C102.322 21.5313 101.387 21.2976 100.259 21.2976C98.9788 21.2976 97.8713 21.6227 96.9466 22.2832C96.0219 22.9437 95.3107 23.9191 94.8331 25.2096C94.3555 26.5 94.1117 28.0852 94.1117 29.9751V44.4343H84.7533V1.78835H94.1117V15.2009C94.1117 16.7657 93.9897 19.0621 93.7459 22.1003H93.8576C93.9694 21.7345 94.0507 21.3687 94.1218 21.0029C94.8737 18.4626 96.0524 16.5828 97.6782 15.3737C99.304 14.1645 101.499 13.5548 104.283 13.5548C107.524 13.5548 110.085 14.5709 111.954 16.6032C113.824 18.6354 114.759 21.5719 114.759 25.4331V25.423Z" fill="rgb(0, 5, 29)"></path>
<path d="M200 21.2976V14.0324H190.276V7.14322H182.584L182.157 11.3905C182.076 12.3355 181.883 13.0163 181.568 13.4228C181.263 13.8292 180.755 14.0426 180.064 14.0426H167.993V11.7665C167.993 10.4151 168.369 9.38881 169.131 8.6877C169.893 7.98659 171.031 7.64111 172.545 7.64111C173.49 7.64111 174.333 7.71224 175.065 7.85449C175.807 7.99675 176.497 8.16949 177.158 8.37271V1.47335C176.579 1.27013 175.695 1.05675 174.486 0.823045C173.276 0.599502 171.996 0.48773 170.635 0.48773C167.068 0.48773 164.172 1.40222 161.957 3.23121C159.742 5.0602 158.634 7.67159 158.634 11.0755V14.0324H145.588V11.7563C145.588 10.4049 145.964 9.37865 146.726 8.67754C147.488 7.97643 148.626 7.63095 150.14 7.63095C151.085 7.63095 151.928 7.70208 152.66 7.84433C153.401 7.98659 154.092 8.15932 154.753 8.36255V1.47335C154.753 1.47335 154.672 1.47335 154.631 1.44287C154.59 1.42255 154.55 1.41239 154.509 1.41239C153.848 1.16852 152.964 0.955138 151.837 0.762078C150.709 0.57918 149.51 0.48773 148.24 0.48773C145.903 0.48773 143.83 0.884011 142.021 1.68673C140.212 2.48946 138.8 3.68846 137.774 5.28375C136.747 6.87903 136.239 8.80963 136.239 11.0654V14.0223H119.382V44.4241H128.741V21.2874H136.25V44.4241H145.608V21.2874H158.655V44.4241H168.013V21.2874H180.938V33.9684C180.938 37.5349 181.944 40.2581 183.956 42.1277C185.968 43.9974 189.25 44.9322 193.802 44.9322C194.909 44.9322 196.007 44.861 197.094 44.7188C198.181 44.5765 199.055 44.4241 199.705 44.2615V37.1793C199.167 37.3012 198.506 37.4028 197.704 37.4841C196.901 37.5654 196.159 37.6061 195.458 37.6061C194.188 37.6061 193.182 37.4841 192.44 37.2403C191.698 36.9964 191.16 36.5696 190.804 35.9803C190.459 35.3808 190.286 34.5577 190.286 33.4908V21.3077H200.01L200 21.2976Z" fill="rgb(0, 5, 29)"></path>
<path d="M55.9772 57.7554H56.8714L55.1948 63.5777H54.382L53.2236 59.4117L52.0652 63.5777H51.2422L49.5758 57.7554H50.5208L51.6994 62.1348L52.8883 57.7554H53.5996L54.7884 62.1653L55.9671 57.7554H55.9772Z" fill="rgb(0, 5, 29)"></path>
<path d="M59.5844 55.1542H60.6208V56.404H59.5844V55.1542ZM59.6454 63.5879V57.7656H60.5497V63.5879H59.6454Z" fill="rgb(0, 5, 29)"></path>
<path d="M66.3212 62.7039L66.2805 63.6285C66.1281 63.659 65.9757 63.6793 65.8131 63.6793C65.2441 63.6793 64.8275 63.4964 64.543 63.1205C64.2687 62.7547 64.1264 62.2161 64.1264 61.515V58.7004H63.2729V57.7656H64.1264V56.0077H65.0307V57.7656H66.2297V58.7004H65.0307V61.4744C65.0307 62.3279 65.3254 62.7547 65.9147 62.7547C66.057 62.7547 66.1891 62.7445 66.3212 62.714V62.7039Z" fill="rgb(0, 5, 29)"></path>
<path d="M72.9665 59.9705V63.5879H72.0622V60.0315C72.0622 59.5336 71.9911 59.178 71.8386 58.9443C71.6964 58.7106 71.4627 58.5988 71.1578 58.5988C70.7921 58.5988 70.4974 58.7512 70.284 59.056C70.0706 59.3609 69.9487 59.7673 69.9487 60.2754V63.598H69.0443V55.1847H69.9487V58.6598C70.1011 58.3244 70.2942 58.0704 70.5482 57.8977C70.8022 57.7249 71.0867 57.6335 71.4017 57.6335C72.4483 57.6335 72.9665 58.4159 72.9665 59.9807V59.9705Z" fill="rgb(0, 5, 29)"></path>
<path d="M85.5561 63.5879H84.54L83.4629 60.885C83.341 60.6005 83.1987 60.3973 83.0361 60.2855C82.8735 60.1738 82.6602 60.1128 82.3858 60.1128H81.3494V63.5879H80.4349V55.1745H83.1174C83.8185 55.1745 84.3469 55.3777 84.7127 55.7943C85.0785 56.2109 85.2614 56.8104 85.2614 57.6132C85.2614 58.2533 85.1293 58.7918 84.855 59.1983C84.5806 59.6149 84.1945 59.8791 83.6966 59.9909C84.0116 60.1128 84.2656 60.4278 84.4688 60.9257L85.5561 63.598V63.5879ZM83.0158 59.1272C83.4832 59.1272 83.8287 59.0052 84.0522 58.7614C84.2758 58.5175 84.3875 58.1415 84.3875 57.6335C84.3875 57.1254 84.2758 56.7495 84.0522 56.5158C83.8287 56.2821 83.4832 56.1601 83.0158 56.1601H81.3392V59.117H83.0158V59.1272Z" fill="rgb(0, 5, 29)"></path>
<path d="M89.2039 62.8055C88.767 62.2263 88.5536 61.3728 88.5536 60.2347V55.1644H89.4681V60.3262C89.4681 61.0984 89.6103 61.6877 89.8847 62.084C90.159 62.4803 90.5756 62.6835 91.1243 62.6835C91.673 62.6835 92.0795 62.4803 92.364 62.084C92.6485 61.6877 92.7806 61.0984 92.7806 60.3262V55.1644H93.6951V60.2347C93.6951 61.3524 93.4715 62.206 93.0346 62.7953C92.5977 63.3846 91.9575 63.6692 91.1243 63.6692C90.2911 63.6692 89.6408 63.3745 89.2039 62.7953V62.8055Z" fill="rgb(0, 5, 29)"></path>
<path d="M97.8408 63.4151C97.4343 63.2424 97.0787 62.9782 96.784 62.6429L97.1193 61.7386C97.4343 62.0739 97.7493 62.3177 98.0846 62.46C98.42 62.6022 98.7858 62.6835 99.2024 62.6835C99.6698 62.6835 100.036 62.5616 100.3 62.3279C100.554 62.0942 100.686 61.7589 100.686 61.3321C100.686 60.9663 100.564 60.692 100.33 60.5192C100.097 60.3363 99.7104 60.1738 99.182 60.0112C98.6841 59.8689 98.2675 59.7063 97.9424 59.5234C97.6172 59.3405 97.3632 59.0967 97.1905 58.7817C97.0177 58.4667 96.9161 58.0704 96.9161 57.5827C96.9161 57.0949 97.0177 56.658 97.2108 56.2821C97.4038 55.9061 97.6782 55.6114 98.044 55.4082C98.3996 55.1948 98.8162 55.0932 99.2836 55.0932C99.7307 55.0932 100.137 55.1847 100.533 55.3574C100.92 55.5403 101.245 55.7943 101.499 56.1297L101.174 57.034C100.879 56.719 100.584 56.4751 100.269 56.3227C99.9644 56.1703 99.6393 56.089 99.2938 56.089C98.8366 56.089 98.4809 56.2109 98.2269 56.465C97.9627 56.719 97.8408 57.0645 97.8408 57.5116C97.8408 57.8977 97.9526 58.1822 98.1761 58.3752C98.3996 58.5683 98.7654 58.7512 99.2633 58.9036C99.7917 59.0662 100.218 59.2288 100.544 59.4015C100.869 59.5742 101.133 59.808 101.326 60.1026C101.519 60.3973 101.621 60.7936 101.621 61.2711C101.621 61.7487 101.519 62.1856 101.326 62.5514C101.133 62.9172 100.859 63.2017 100.493 63.3948C100.127 63.598 99.7002 63.6895 99.2125 63.6895C98.7248 63.6895 98.2777 63.598 97.8611 63.4253L97.8408 63.4151Z" fill="rgb(0, 5, 29)"></path>
<path d="M105.482 63.4151C105.075 63.2424 104.72 62.9782 104.425 62.6429L104.76 61.7386C105.075 62.0739 105.39 62.3177 105.726 62.46C106.061 62.6022 106.427 62.6835 106.843 62.6835C107.311 62.6835 107.677 62.5616 107.941 62.3279C108.195 62.0942 108.327 61.7589 108.327 61.3321C108.327 60.9663 108.205 60.692 107.971 60.5192C107.738 60.3363 107.352 60.1738 106.823 60.0112C106.325 59.8689 105.909 59.7063 105.583 59.5234C105.258 59.3405 105.004 59.0967 104.832 58.7817C104.659 58.4667 104.557 58.0704 104.557 57.5827C104.557 57.0949 104.659 56.658 104.852 56.2821C105.045 55.9061 105.319 55.6114 105.685 55.4082C106.041 55.1948 106.457 55.0932 106.925 55.0932C107.372 55.0932 107.778 55.1847 108.175 55.3574C108.561 55.5403 108.886 55.7943 109.14 56.1297L108.815 57.034C108.52 56.719 108.225 56.4751 107.91 56.3227C107.606 56.1703 107.28 56.089 106.935 56.089C106.478 56.089 106.122 56.2109 105.868 56.465C105.604 56.719 105.482 57.0645 105.482 57.5116C105.482 57.8977 105.594 58.1822 105.817 58.3752C106.041 58.5683 106.407 58.7512 106.904 58.9036C107.433 59.0662 107.86 59.2288 108.185 59.4015C108.51 59.5742 108.774 59.808 108.967 60.1026C109.16 60.3973 109.262 60.7936 109.262 61.2711C109.262 61.7487 109.16 62.1856 108.967 62.5514C108.774 62.9172 108.5 63.2017 108.134 63.3948C107.768 63.598 107.341 63.6895 106.854 63.6895C106.366 63.6895 105.919 63.598 105.502 63.4253L105.482 63.4151Z" fill="rgb(0, 5, 29)"></path>
<path d="M112.452 63.5879V55.1745H116.557V56.1703H113.357V58.8223H116.375V59.8283H113.357V62.6124H116.557V63.6082H112.452V63.5879Z" fill="rgb(0, 5, 29)"></path>
<path d="M119.758 63.5879V55.1745H120.683V62.5616H123.741V63.5879H119.758Z" fill="rgb(0, 5, 29)"></path>
<path d="M126.729 63.5879V55.1745H127.653V62.5616H130.712V63.5879H126.729Z" fill="rgb(0, 5, 29)"></path>
<path d="M138.942 63.1611C138.495 62.8156 138.15 62.3076 137.906 61.6674C137.662 61.0171 137.54 60.255 137.54 59.3812C137.54 58.5073 137.662 57.7453 137.906 57.095C138.15 56.4446 138.495 55.9468 138.942 55.6013C139.389 55.2558 139.928 55.0831 140.527 55.0831C140.954 55.0831 141.361 55.1745 141.726 55.3473C142.092 55.5302 142.407 55.7842 142.671 56.1195L142.346 57.0238C142.052 56.6987 141.767 56.465 141.472 56.3227C141.178 56.1805 140.873 56.1093 140.538 56.1093C139.877 56.1093 139.379 56.3938 139.024 56.9527C138.668 57.5217 138.495 58.3244 138.495 59.371C138.495 60.4176 138.668 61.2305 139.024 61.7995C139.379 62.3685 139.887 62.653 140.538 62.653C140.873 62.653 141.188 62.5819 141.472 62.4397C141.757 62.2974 142.052 62.0637 142.346 61.7386L142.671 62.6429C142.417 62.9782 142.102 63.2322 141.726 63.4151C141.361 63.598 140.954 63.6793 140.527 63.6793C139.918 63.6793 139.389 63.5066 138.942 63.1509V63.1611Z" fill="rgb(0, 5, 29)"></path>
<path d="M146.411 62.8055C145.974 62.2263 145.76 61.3728 145.76 60.2347V55.1644H146.675V60.3262C146.675 61.0984 146.817 61.6877 147.091 62.084C147.366 62.4803 147.782 62.6835 148.331 62.6835C148.88 62.6835 149.286 62.4803 149.571 62.084C149.855 61.6877 149.987 61.0984 149.987 60.3262V55.1644H150.902V60.2347C150.902 61.3524 150.678 62.206 150.241 62.7953C149.804 63.3846 149.164 63.6692 148.331 63.6692C147.498 63.6692 146.848 63.3745 146.411 62.7953V62.8055Z" fill="rgb(0, 5, 29)"></path>
<path d="M159.732 55.1644H160.463V63.5777H159.63V57.4912L157.76 62.2364H157.131L155.241 57.5522V63.5777H154.418V55.1644H155.159L157.456 60.9866L159.732 55.1644Z" fill="rgb(0, 5, 29)"></path>
<path d="M169.354 55.1644H170.086V63.5777H169.253V57.4912L167.383 62.2364H166.753L164.863 57.5522V63.5777H164.04V55.1644H164.782L167.078 60.9866L169.354 55.1644Z" fill="rgb(0, 5, 29)"></path>
<path d="M173.652 63.5879V55.1745H174.577V63.5879H173.652Z" fill="rgb(0, 5, 29)"></path>
<path d="M182.452 55.1644H183.316V63.5777H182.604L178.997 57.227V63.5777H178.133V55.1644H178.835L182.452 61.5252V55.1644Z" fill="rgb(0, 5, 29)"></path>
<path d="M191.973 59.117V63.0798C191.709 63.2627 191.363 63.405 190.957 63.5167C190.55 63.6285 190.134 63.6793 189.717 63.6793C189.077 63.6793 188.528 63.5066 188.061 63.1713C187.593 62.8258 187.238 62.3381 186.994 61.6877C186.75 61.0476 186.628 60.2754 186.628 59.371C186.628 58.4667 186.75 57.7249 186.994 57.0746C187.238 56.4243 187.593 55.9264 188.051 55.5911C188.508 55.2456 189.046 55.0831 189.666 55.0831C190.113 55.0831 190.53 55.1745 190.906 55.3473C191.282 55.52 191.597 55.774 191.861 56.1093L191.526 57.0137C191.231 56.6885 190.936 56.4548 190.642 56.3125C190.347 56.1703 190.032 56.0992 189.676 56.0992C188.996 56.0992 188.477 56.3837 188.112 56.9425C187.746 57.5014 187.573 58.3143 187.573 59.3812C187.573 60.4481 187.756 61.3016 188.132 61.8605C188.498 62.4193 189.046 62.7039 189.747 62.7039C190.215 62.7039 190.672 62.6124 191.129 62.4295V60.062H189.656V59.1272H191.963L191.973 59.117Z" fill="rgb(0, 5, 29)"></path>
<path d="M196.098 63.4151C195.692 63.2424 195.336 62.9782 195.041 62.6429L195.377 61.7386C195.692 62.0739 196.007 62.3177 196.342 62.46C196.677 62.6022 197.043 62.6835 197.46 62.6835C197.927 62.6835 198.293 62.5616 198.557 62.3279C198.811 62.0942 198.943 61.7589 198.943 61.3321C198.943 60.9663 198.821 60.692 198.588 60.5192C198.354 60.3363 197.968 60.1738 197.439 60.0112C196.941 59.8689 196.525 59.7063 196.2 59.5234C195.875 59.3405 195.621 59.0967 195.448 58.7817C195.275 58.4667 195.173 58.0704 195.173 57.5827C195.173 57.0949 195.275 56.658 195.468 56.2821C195.661 55.9061 195.936 55.6114 196.301 55.4082C196.657 55.1948 197.074 55.0932 197.541 55.0932C197.988 55.0932 198.395 55.1847 198.791 55.3574C199.177 55.5403 199.502 55.7943 199.756 56.1297L199.431 57.034C199.136 56.719 198.842 56.4751 198.527 56.3227C198.222 56.1703 197.897 56.089 197.551 56.089C197.094 56.089 196.738 56.2109 196.484 56.465C196.22 56.719 196.098 57.0645 196.098 57.5116C196.098 57.8977 196.21 58.1822 196.433 58.3752C196.657 58.5683 197.023 58.7512 197.521 58.9036C198.049 59.0662 198.476 59.2288 198.801 59.4015C199.126 59.5742 199.39 59.808 199.583 60.1026C199.776 60.3973 199.878 60.7936 199.878 61.2711C199.878 61.7487 199.776 62.1856 199.583 62.5514C199.39 62.9172 199.116 63.2017 198.75 63.3948C198.384 63.598 197.958 63.6895 197.47 63.6895C196.982 63.6895 196.535 63.598 196.118 63.4253L196.098 63.4151Z" fill="rgb(0, 5, 29)"></path>
</g>
<defs fill="none">
<clipPath id="clip0_2_2" fill="none">
<rect width="200" height="63.6793" fill="rgb(255, 255, 255)"></rect>
</clipPath>
</defs>
</svg>