<?xml version="1.0" encoding="UTF-8" standalone="no"?>
<!-- Created with Inkscape (http://www.inkscape.org/) -->
<svg width="68.650642mm" height="22.225477mm" viewBox="0 0 68.650642 22.225477" version="1.1" id="svg3174" xmlns="http://www.w3.org/2000/svg" xmlns:svg="http://www.w3.org/2000/svg">
  <defs id="defs3171">
    <clipPath clipPathUnits="userSpaceOnUse" id="clipPath1687">
      <path d="m 199,6089.681 c 0.175,0.719 0.356,1.466 0.54,2.212 0.25,1.019 0.504,2.038 0.754,3.057 0.2,0.811 0.395,1.623 0.597,2.433 0.064,0.256 0.222,0.4 0.464,0.414 0.116,0.01 0.233,0 0.349,0 0.7,0 1.399,0 2.098,0 0.348,0 0.692,0.01 1.038,-0.102 0.235,-0.076 0.501,-0.045 0.753,-0.045 1.496,0 2.991,0 4.487,0 0.691,0 1.325,-0.23 1.917,-0.62 0.366,-0.24 0.608,-0.598 0.781,-1.018 0.047,-0.113 0.081,-0.249 0.072,-0.37 -0.02,-0.275 0.148,-0.501 0.15,-0.75 0.002,-0.249 -0.136,-0.497 -0.141,-0.748 -0.026,-1.255 -0.486,-2.316 -1.198,-3.237 -0.379,-0.49 -0.911,-0.79 -1.45,-1.043 -0.517,-0.242 -1.054,-0.392 -1.614,-0.435 -0.076,-0.01 -0.152,-0.028 -0.227,-0.026 -0.407,0.01 -0.814,0.036 -1.221,0.037 -2.564,0 -5.128,0 -7.692,-0.01 -0.184,0 -0.352,0 -0.457,0.25" clip-rule="evenodd" id="path1685"/>
    </clipPath>
    <clipPath clipPathUnits="userSpaceOnUse" id="clipPath1695">
      <path d="M 0,0 H 1920 V 6144 H 0 Z" id="path1693"/>
    </clipPath>
    <clipPath clipPathUnits="userSpaceOnUse" id="clipPath1417">
      <path d="m 92.996,6107.039 c -0.039,-0.18 -0.033,-0.251 -0.064,-0.282 -0.186,-0.185 -0.365,-0.384 -0.575,-0.534 -0.415,-0.298 -0.741,-0.697 -1.127,-1.022 -0.514,-0.433 -0.976,-0.92 -1.435,-1.409 -0.417,-0.445 -0.842,-0.887 -1.209,-1.374 -0.548,-0.726 -1.037,-1.499 -1.571,-2.236 -0.453,-0.627 -0.701,-1.375 -1.134,-2.014 -0.122,-0.181 -0.172,-0.415 -0.251,-0.626 -0.375,-1.004 -0.715,-2.012 -0.854,-3.094 -0.073,-0.559 -0.102,-1.112 -0.096,-1.669 0.01,-0.847 -0.008,-1.69 0.1,-2.54 0.091,-0.715 0.218,-1.425 0.305,-2.141 0.061,-0.507 0.217,-1.003 0.345,-1.5 0.265,-1.028 0.594,-2.032 1.007,-3.01 1.092,-2.588 1.416,-3.101 2.869,-5.301 0.608,-0.922 1.308,-1.78 2.08,-2.567 0.4,-0.407 0.789,-0.827 1.193,-1.228 0.302,-0.299 0.619,-0.581 0.934,-0.864 0.058,-0.051 0.142,-0.071 0.207,-0.102 0.133,0.079 0.101,0.181 0.053,0.271 -0.532,0.993 -0.936,2.044 -1.295,3.115 -0.176,0.525 -0.37,1.043 -0.531,1.572 -0.185,0.608 -0.371,1.218 -0.506,1.839 -0.192,0.884 -0.411,1.763 -0.486,2.673 -0.037,0.451 -0.127,0.897 -0.18,1.346 -0.026,0.226 -0.032,0.456 -0.033,0.684 -0.003,1.038 0.003,2.076 -0.003,3.115 -0.005,0.977 0.13,1.941 0.304,2.894 0.146,0.804 0.355,1.598 0.572,2.385 0.123,0.446 0.316,0.87 0.479,1.303 0.643,1.706 1.629,3.203 2.647,4.681 0.127,0.185 0.265,0.364 0.409,0.535 0.486,0.575 1.006,1.121 1.459,1.722 0.696,0.923 1.578,1.643 2.388,2.44 0.618,0.609 1.334,1.11 1.975,1.695 0.721,0.658 1.525,1.197 2.291,1.789 0.637,0.493 1.338,0.898 2.017,1.332 0.094,0.06 0.225,0.085 0.338,0.083 0.499,-0.01 1.002,0 1.495,-0.065 0.691,-0.095 1.376,-0.242 2.059,-0.391 0.641,-0.14 1.269,-0.346 1.913,-0.461 0.766,-0.138 1.491,-0.414 2.236,-0.622 0.742,-0.208 1.489,-0.422 2.198,-0.827 -0.048,-0.072 -0.076,-0.169 -0.134,-0.195 -0.163,-0.073 -0.336,-0.13 -0.509,-0.171 -0.875,-0.21 -1.72,-0.516 -2.546,-0.874 -0.365,-0.158 -0.712,-0.36 -1.073,-0.528 -1.109,-0.514 -2.136,-1.171 -3.121,-1.904 -0.647,-0.482 -1.282,-0.979 -1.828,-1.588 -0.503,-0.562 -1.048,-1.086 -1.523,-1.671 -0.536,-0.662 -1.033,-1.363 -1.442,-2.119 -0.369,-0.683 -0.702,-1.386 -1.052,-2.08 -0.018,-0.036 -0.04,-0.07 -0.059,-0.105 -0.561,-1.051 -0.924,-2.183 -1.294,-3.315 -0.366,-1.117 -0.622,-2.261 -0.826,-3.42 -0.111,-0.629 -0.212,-1.258 -0.243,-1.897 -0.005,-0.1 -0.001,-0.199 -0.001,-0.284 0.147,-0.077 0.21,-0.01 0.271,0.085 0.546,0.812 1.067,1.643 1.645,2.429 0.847,1.152 1.721,2.283 2.739,3.284 0.652,0.642 1.246,1.346 1.952,1.931 1.086,0.901 2.191,1.766 3.426,2.45 1.108,0.614 2.282,1.038 3.462,1.449 0.692,0.241 1.405,0.426 2.119,0.586 0.971,0.217 1.94,0.456 2.93,0.571 0.119,0.014 0.24,0.01 0.36,0.01 0.238,0.01 0.468,0.012 0.706,0.089 0.241,0.077 0.514,0.047 0.774,0.057 0.457,0.017 0.912,0.013 1.372,0.079 0.468,0.067 0.956,0.079 1.431,-0.039 0.154,-0.038 0.318,-0.031 0.477,-0.038 0.559,-0.026 1.118,-0.04 1.677,-0.073 0.493,-0.03 0.909,-0.211 1.282,-0.581 1.016,-1.009 1.883,-2.14 2.672,-3.341 0.72,-1.094 1.377,-2.228 2.031,-3.364 0.304,-0.529 0.534,-1.091 0.813,-1.629 0.121,-0.232 0.146,-0.517 0.265,-0.75 0.616,-1.208 0.975,-2.506 1.349,-3.808 0.223,-0.776 0.332,-1.569 0.515,-2.349 0.046,-0.2 0.061,-0.409 0.087,-0.614 0.015,-0.123 -0.011,-0.264 0.039,-0.367 0.198,-0.406 0.17,-0.838 0.186,-1.269 0.016,-0.433 0.005,-0.867 0.11,-1.295 0.053,-0.217 0.038,-0.454 0.039,-0.682 0.003,-1.392 0.006,-2.783 -0.003,-4.174 -0.002,-0.288 -0.059,-0.574 -0.089,-0.862 -0.015,-0.143 -0.024,-0.286 -0.038,-0.429 -0.03,-0.287 -0.06,-0.574 -0.091,-0.861 -0.004,-0.04 -0.029,-0.081 -0.027,-0.12 0.034,-0.586 -0.167,-1.139 -0.23,-1.708 -0.114,-1.03 -0.379,-2.022 -0.652,-3.01 -0.248,-0.893 -0.568,-1.766 -0.859,-2.647 -0.069,-0.207 -0.2,-0.335 -0.417,-0.4 -0.593,-0.178 -1.175,-0.398 -1.768,-0.572 -1.036,-0.304 -2.073,-0.605 -3.117,-0.873 -1.008,-0.258 -2.025,-0.482 -3.041,-0.705 -0.739,-0.162 -1.482,-0.309 -2.227,-0.444 -0.704,-0.129 -1.402,-0.307 -2.121,-0.333 -0.355,-0.168 -0.746,-0.113 -1.116,-0.19 -0.175,-0.036 -0.355,-0.045 -0.532,-0.07 -0.157,-0.023 -0.312,-0.051 -0.468,-0.077 -0.137,-0.023 -0.275,-0.064 -0.412,-0.066 -0.34,-0.01 -0.677,-0.069 -1.01,-0.083 -0.975,-0.041 -1.941,-0.263 -2.923,-0.173 -0.238,0.023 -0.476,0.012 -0.713,-0.065 -0.148,-0.048 -0.316,-0.036 -0.476,-0.037 -0.56,0 -1.121,-0.01 -1.681,0 -0.238,0 -0.475,0.054 -0.713,0.072 -0.218,0.018 -0.438,0.023 -0.657,0.031 -0.576,0.021 -1.162,-0.076 -1.723,0.142 -0.036,0.014 -0.08,0 -0.12,0 -0.678,0.01 -1.347,0.094 -2.011,0.24 -0.311,0.068 -0.643,0.041 -0.949,0.121 -0.463,0.12 -0.925,0.225 -1.397,0.287 -0.153,0.02 -0.298,0.098 -0.448,0.145 -0.303,0.096 -0.608,0.188 -0.911,0.286 -0.279,0.091 -0.578,0.084 -0.854,0.207 -0.418,0.187 -0.841,0.369 -1.274,0.512 -0.835,0.277 -1.609,0.695 -2.396,1.079 -0.609,0.298 -1.176,0.687 -1.765,1.031 -0.224,0.132 -0.456,0.248 -0.681,0.377 -1.234,0.712 -2.426,1.496 -3.58,2.336 -0.962,0.7 -1.896,1.442 -2.824,2.19 -0.535,0.432 -1.022,0.926 -1.548,1.37 -1.09,0.919 -2.013,2.014 -3.014,3.027 -0.37,0.374 -0.705,0.789 -1.032,1.205 -0.655,0.831 -1.31,1.664 -1.933,2.52 -0.392,0.539 -0.725,1.125 -1.088,1.687 -0.784,1.211 -1.454,2.489 -2.045,3.809 -0.67,1.495 -1.244,3.029 -1.627,4.633 -0.062,0.259 -0.147,0.516 -0.178,0.78 -0.039,0.325 -0.02,0.642 0.105,0.968 0.625,1.63 1.469,3.142 2.39,4.598 0.598,0.947 1.321,1.813 2.015,2.695 0.698,0.889 1.491,1.673 2.269,2.474 0.706,0.727 1.486,1.371 2.272,2.003 0.826,0.666 1.691,1.272 2.581,1.841 0.558,0.357 1.126,0.695 1.684,1.051 0.595,0.379 1.209,0.718 1.852,1.002 0.635,0.28 1.266,0.571 2.01,0.909" clip-rule="evenodd" id="path1415"/>
    </clipPath>
    <clipPath clipPathUnits="userSpaceOnUse" id="clipPath1425">
      <path d="M 0,0 H 1920 V 6144 H 0 Z" id="path1423"/>
    </clipPath>
    <clipPath clipPathUnits="userSpaceOnUse" id="clipPath1435">
      <path d="m 74.34,6086.6 c 0.077,-0.103 0.134,-0.145 0.139,-0.192 0.029,-0.278 0.091,-0.554 0.123,-0.827 0.12,-1.034 0.351,-2.047 0.515,-3.072 0.117,-0.727 0.289,-1.441 0.48,-2.153 0.155,-0.578 0.255,-1.172 0.415,-1.749 0.164,-0.594 0.372,-1.176 0.558,-1.765 0.174,-0.552 0.331,-1.111 0.519,-1.659 0.09,-0.262 0.251,-0.5 0.351,-0.76 0.228,-0.59 0.434,-1.188 0.659,-1.779 0.057,-0.148 0.159,-0.278 0.229,-0.422 0.202,-0.41 0.416,-0.816 0.592,-1.238 0.155,-0.372 0.317,-0.736 0.565,-1.058 0.073,-0.096 0.141,-0.202 0.182,-0.313 0.284,-0.76 0.743,-1.424 1.181,-2.094 0.505,-0.774 0.989,-1.566 1.58,-2.282 0.55,-0.667 1.04,-1.383 1.676,-1.982 0.365,-0.344 0.664,-0.756 1.031,-1.097 0.516,-0.48 1.047,-0.944 1.584,-1.401 0.584,-0.498 1.215,-0.928 1.819,-1.396 0.346,-0.268 0.748,-0.463 1.122,-0.697 0.82,-0.512 1.7,-0.913 2.56,-1.346 0.589,-0.296 1.225,-0.495 1.833,-0.754 0.95,-0.406 1.94,-0.687 2.934,-0.952 0.974,-0.26 1.957,-0.492 2.945,-0.693 0.87,-0.178 1.758,-0.272 2.629,-0.449 0.656,-0.133 1.314,-0.159 1.976,-0.171 0.061,0 0.124,0.01 0.182,-0.01 0.68,-0.167 1.371,-0.114 2.059,-0.11 0.101,0 0.213,0.018 0.301,-0.017 0.411,-0.163 0.838,-0.125 1.262,-0.126 0.67,0 1.34,-0.011 2.009,0 0.85,0.014 1.7,0.045 2.55,0.07 0.04,0 0.084,-0.01 0.121,0.01 0.782,0.289 1.606,0.143 2.407,0.231 0.158,0.017 0.313,0.054 0.47,0.084 0.078,0.014 0.154,0.041 0.233,0.046 0.726,0.049 1.445,0.15 2.154,0.315 0.059,0.013 0.121,0.017 0.181,0.016 0.853,0 1.663,0.241 2.487,0.408 0.433,0.088 0.869,0.165 1.304,0.247 1.121,0.213 2.233,0.467 3.331,0.775 0.627,0.176 1.249,0.375 1.875,0.555 0.036,0.01 0.093,-0.054 0.137,-0.082 -0.012,-0.051 -0.01,-0.098 -0.032,-0.124 -0.408,-0.473 -0.809,-0.953 -1.235,-1.41 -0.219,-0.234 -0.488,-0.422 -0.73,-0.635 -0.167,-0.146 -0.333,-0.295 -0.49,-0.451 -0.401,-0.397 -0.841,-0.748 -1.292,-1.087 -0.355,-0.267 -0.692,-0.558 -1.054,-0.816 -0.787,-0.562 -1.582,-1.114 -2.381,-1.66 -0.18,-0.124 -0.392,-0.199 -0.58,-0.311 -0.933,-0.554 -1.891,-1.063 -2.885,-1.498 -1.868,-0.817 -3.795,-1.463 -5.783,-1.927 -0.609,-0.142 -1.219,-0.281 -1.832,-0.405 -0.296,-0.059 -0.599,-0.097 -0.901,-0.111 -0.623,-0.031 -1.229,-0.278 -1.864,-0.157 -1.147,-0.219 -2.306,-0.064 -3.458,-0.103 -0.22,-0.01 -0.443,0.038 -0.664,0.063 -0.06,0.01 -0.12,0.044 -0.177,0.038 -0.939,-0.106 -1.839,0.221 -2.767,0.249 -0.276,0.01 -0.548,0.118 -0.823,0.169 -0.674,0.126 -1.351,0.236 -2.023,0.372 -0.335,0.068 -0.661,0.183 -0.991,0.274 -0.911,0.251 -1.803,0.563 -2.703,0.85 -0.591,0.188 -1.203,0.347 -1.751,0.615 -0.633,0.309 -1.325,0.464 -1.933,0.834 -0.409,0.249 -0.897,0.368 -1.317,0.603 -0.628,0.352 -1.281,0.654 -1.891,1.049 -0.638,0.412 -1.285,0.814 -1.92,1.235 -0.333,0.22 -0.661,0.446 -0.961,0.713 -0.226,0.201 -0.472,0.379 -0.708,0.569 -1.043,0.838 -1.936,1.833 -2.883,2.77 -0.242,0.24 -0.442,0.522 -0.655,0.789 -0.653,0.814 -1.26,1.661 -1.817,2.543 -0.021,0.034 -0.062,0.056 -0.08,0.091 -0.542,1.061 -1.145,2.09 -1.609,3.193 -0.347,0.828 -0.686,1.657 -0.946,2.514 -0.168,0.555 -0.292,1.122 -0.442,1.682 -0.109,0.408 -0.239,0.811 -0.336,1.222 -0.074,0.312 -0.11,0.634 -0.162,0.952 -0.069,0.414 -0.138,0.829 -0.204,1.244 -0.026,0.159 -0.045,0.319 -0.069,0.478 -0.03,0.197 -0.059,0.394 -0.093,0.591 -0.013,0.079 -0.049,0.156 -0.054,0.234 -0.036,0.622 -0.087,1.244 -0.094,1.866 -0.014,1.372 -0.013,2.745 -0.001,4.117 0.009,0.884 0.059,1.764 0.213,2.64 0.121,0.688 0.135,1.396 0.267,2.081 0.127,0.666 0.221,1.337 0.373,2 0.146,0.633 0.351,1.246 0.478,1.943" clip-rule="evenodd" id="path1433"/>
    </clipPath>
    <clipPath clipPathUnits="userSpaceOnUse" id="clipPath1443">
      <path d="M 0,0 H 1920 V 6144 H 0 Z" id="path1441"/>
    </clipPath>
    <clipPath clipPathUnits="userSpaceOnUse" id="clipPath1453">
      <path d="m 184.968,6107.552 c 0.063,-0.229 0.022,-0.42 -0.029,-0.618 -0.383,-1.489 -0.76,-2.98 -1.14,-4.469 -0.374,-1.465 -0.748,-2.929 -1.125,-4.393 -0.11,-0.424 -0.154,-0.458 -0.565,-0.479 -0.142,-0.01 -0.285,0 -0.427,0 -7.505,0 -15.009,0.01 -22.513,-0.012 -0.798,0 -1.606,-0.082 -2.365,-0.427 -0.582,-0.265 -0.992,-0.679 -1.309,-1.206 -0.061,-0.102 -0.115,-0.227 -0.117,-0.342 -0.01,-0.638 -0.093,-1.277 0.188,-1.898 0.29,-0.639 0.782,-1.023 1.433,-1.158 0.61,-0.125 1.221,-0.314 1.86,-0.248 1.515,-0.23 3.04,-0.092 4.56,-0.115 1.505,-0.022 3.01,-0.01 4.515,-0.01 0.61,0 1.22,0 1.83,0 1.383,0.01 2.74,-0.143 4.088,-0.482 1.304,-0.329 2.524,-0.813 3.628,-1.571 0.449,-0.309 0.883,-0.65 1.274,-1.029 0.812,-0.785 1.379,-1.738 1.779,-2.79 0.27,-0.709 0.452,-1.869 0.421,-2.548 -0.011,-0.263 0.009,-0.527 -0.006,-0.79 -0.012,-0.22 -0.053,-0.439 -0.085,-0.658 -0.011,-0.079 -0.05,-0.157 -0.047,-0.235 0.024,-0.651 -0.14,-1.276 -0.233,-1.913 -0.139,-0.959 -0.375,-1.893 -0.647,-2.82 -0.16,-0.543 -0.316,-1.089 -0.528,-1.612 -0.408,-1.003 -0.878,-1.973 -1.534,-2.853 -0.399,-0.536 -0.811,-1.066 -1.271,-1.541 -0.476,-0.491 -1.045,-0.896 -1.593,-1.313 -0.86,-0.655 -1.847,-1.077 -2.831,-1.508 -1.005,-0.44 -2.072,-0.668 -3.121,-0.961 -0.691,0 -1.334,-0.348 -2.034,-0.29 -0.374,-0.127 -0.761,-0.095 -1.146,-0.099 -0.04,0 -0.085,0 -0.12,-0.011 -0.486,-0.213 -1,-0.146 -1.505,-0.146 -8.074,0 -16.147,0 -24.221,0 -0.244,0 -0.488,-0.01 -0.732,0.01 -0.156,0.01 -0.31,0.056 -0.5,0.092 0.054,0.283 0.086,0.535 0.152,0.778 0.126,0.463 0.277,0.92 0.407,1.383 0.097,0.346 0.211,0.692 0.26,1.046 0.087,0.641 0.314,1.245 0.459,1.871 0.253,1.094 0.539,2.18 0.821,3.267 0.075,0.291 0.187,0.572 0.29,0.882 0.14,0.03 0.273,0.074 0.409,0.084 0.203,0.015 0.407,0.01 0.61,0.01 7.341,0 14.683,0 22.024,0 0.817,0 1.624,0.112 2.388,0.356 0.945,0.303 1.559,0.976 1.727,1.993 0.033,0.198 0.069,0.397 0.129,0.588 0.311,1.001 -0.138,1.991 -1.09,2.404 -0.536,0.233 -1.106,0.318 -1.673,0.435 -0.524,0.108 -1.058,0.023 -1.571,0.114 -1.273,0.227 -2.551,0.096 -3.826,0.117 -1.647,0.026 -3.295,0 -4.942,0.01 -0.424,0 -0.846,-0.014 -1.27,0.079 -0.391,0.085 -0.803,0 -1.2,0.146 -0.241,0.087 -0.522,0.058 -0.779,0.108 -0.851,0.164 -1.68,0.403 -2.499,0.693 -0.817,0.288 -1.585,0.653 -2.297,1.141 -0.098,0.067 -0.206,0.123 -0.29,0.205 -0.479,0.467 -0.986,0.91 -1.418,1.417 -0.562,0.661 -1.008,1.403 -1.18,2.276 -0.027,0.138 -0.044,0.289 -0.114,0.405 -0.246,0.405 -0.235,0.851 -0.243,1.296 -0.005,0.281 -0.052,0.556 -0.092,0.834 -0.07,0.476 -0.076,0.978 0,1.451 0.052,0.321 0.079,0.636 0.094,0.957 0.024,0.502 -0.01,1.003 0.203,1.49 0.117,0.267 0.119,0.588 0.15,0.888 0.037,0.339 0.2,0.656 0.166,1.01 -0.01,0.113 0.051,0.235 0.09,0.35 0.128,0.38 0.26,0.759 0.392,1.138 0.758,2.162 1.92,4.059 3.68,5.56 1.22,1.041 2.593,1.819 4.1,2.378 1.119,0.415 2.277,0.681 3.437,0.932 0.866,0.187 1.747,0.319 2.641,0.288 0.081,0 0.171,-0.017 0.242,0.011 0.353,0.135 0.72,0.106 1.084,0.106 7.952,0 15.903,0 23.855,0 0.28,0 0.563,0.017 0.842,-0.046" clip-rule="evenodd" id="path1451"/>
    </clipPath>
    <clipPath clipPathUnits="userSpaceOnUse" id="clipPath1461">
      <path d="M 0,0 H 1920 V 6144 H 0 Z" id="path1459"/>
    </clipPath>
    <clipPath clipPathUnits="userSpaceOnUse" id="clipPath1471">
      <path d="m 267.6,6107.564 c -0.026,-0.25 -0.024,-0.434 -0.067,-0.605 -0.36,-1.429 -0.729,-2.855 -1.093,-4.283 -0.2,-0.779 -0.397,-1.56 -0.593,-2.34 -0.202,-0.8 -0.407,-1.599 -0.599,-2.402 -0.051,-0.212 -0.174,-0.316 -0.373,-0.335 -0.182,-0.018 -0.365,-0.016 -0.548,-0.016 -7.498,-10e-4 -14.995,0 -22.493,-0.01 -0.744,0 -1.503,-0.055 -2.204,-0.331 -0.756,-0.297 -1.388,-0.765 -1.614,-1.601 -0.062,-0.229 -0.034,-0.48 -0.06,-0.72 -0.053,-0.479 0.096,-0.905 0.285,-1.337 0.164,-0.374 0.423,-0.627 0.771,-0.807 0.268,-0.138 0.546,-0.247 0.845,-0.305 0.517,-0.099 1.028,-0.23 1.563,-0.184 0.08,0.01 0.167,0.011 0.242,-0.011 0.578,-0.169 1.169,-0.104 1.755,-0.105 3.17,-0.01 6.34,0 9.51,0 0.978,0 1.95,-0.109 2.898,-0.313 1.358,-0.291 2.669,-0.747 3.867,-1.48 1.344,-0.822 2.411,-1.904 3.103,-3.323 0.298,-0.611 0.459,-1.272 0.62,-1.936 0.191,-0.785 0.096,-1.568 0.124,-2.351 0.005,-0.138 -0.035,-0.279 -0.059,-0.417 -0.018,-0.099 -0.065,-0.195 -0.065,-0.293 0,-0.811 -0.203,-1.593 -0.327,-2.387 -0.1,-0.64 -0.245,-1.268 -0.431,-1.882 -0.28,-0.927 -0.502,-1.878 -0.987,-2.734 -0.058,-0.104 -0.109,-0.226 -0.116,-0.342 -0.009,-0.134 -0.072,-0.211 -0.147,-0.311 -0.106,-0.139 -0.153,-0.32 -0.24,-0.475 -0.097,-0.172 -0.202,-0.34 -0.317,-0.5 -0.397,-0.553 -0.787,-1.106 -1.238,-1.624 -0.429,-0.492 -0.917,-0.911 -1.398,-1.338 -0.374,-0.332 -0.793,-0.63 -1.231,-0.872 -1.046,-0.576 -2.107,-1.126 -3.261,-1.471 -1.044,-0.312 -2.092,-0.595 -3.178,-0.722 -0.378,-0.044 -0.751,-0.132 -1.127,-0.193 -0.16,-0.026 -0.323,-0.047 -0.484,-0.046 -0.305,0 -0.599,-0.027 -0.899,-0.107 -0.249,-0.066 -0.523,-0.054 -0.786,-0.054 -5.791,0 -11.582,0 -17.373,0 -2.499,0 -4.999,0 -7.498,0 -0.243,0 -0.486,0.019 -0.728,0.042 -0.072,0.01 -0.14,0.057 -0.249,0.105 0.116,0.419 0.229,0.818 0.335,1.218 0.025,0.094 0.027,0.194 0.043,0.291 0.023,0.139 0.031,0.284 0.078,0.414 0.38,1.04 0.575,2.129 0.866,3.192 0.18,0.659 0.286,1.337 0.531,1.98 -0.043,0.416 0.168,0.778 0.262,1.163 0.071,0.291 0.195,0.569 0.302,0.868 h 0.924 c 2.236,0 4.471,0 6.706,0 0.281,0 0.555,0.01 0.839,0.086 0.284,0.081 0.604,0.053 0.908,0.053 4.267,0 8.533,0 12.801,0 0.729,0 1.462,-0.04 2.182,0.107 0.671,0.137 1.325,0.32 1.905,0.718 0.195,0.134 0.331,0.296 0.439,0.487 0.139,0.246 0.259,0.504 0.379,0.76 0.032,0.07 0.045,0.153 0.052,0.231 0.023,0.302 0.054,0.591 0.181,0.882 0.09,0.206 0.097,0.495 0.031,0.714 -0.184,0.607 -0.49,1.127 -1.116,1.423 -0.495,0.234 -1.022,0.323 -1.54,0.426 -0.551,0.11 -1.119,0.166 -1.689,0.127 -0.1,-0.01 -0.21,-0.01 -0.302,0.024 -0.453,0.16 -0.921,0.11 -1.384,0.11 -2.418,0 -4.836,0 -7.253,0 -0.79,0 -1.571,0.068 -2.344,0.236 -0.276,0.06 -0.561,0.073 -0.841,0.108 -0.696,0.086 -1.36,0.306 -2.03,0.492 -0.55,0.153 -1.946,0.812 -2.603,1.258 -1.023,0.694 -1.841,1.574 -2.466,2.62 -0.285,0.478 -0.428,1.041 -0.63,1.567 -0.051,0.13 -0.066,0.275 -0.125,0.4 -0.09,0.189 -0.118,0.384 -0.122,0.589 -0.008,0.423 -0.055,0.841 -0.103,1.262 -0.07,0.615 -0.095,1.244 0.053,1.87 0.078,0.328 0.03,0.684 0.045,1.027 0.018,0.401 -0.042,0.815 0.203,1.178 0.021,0.031 0.03,0.078 0.028,0.116 -0.041,0.579 0.181,1.113 0.289,1.665 0.061,0.315 0.182,0.618 0.28,0.926 0.241,0.748 0.495,1.494 0.833,2.202 0.258,0.54 0.571,1.059 0.913,1.551 0.518,0.748 1.123,1.425 1.778,2.063 0.699,0.68 1.495,1.214 2.326,1.709 0.781,0.465 1.609,0.821 2.464,1.122 0.227,0.081 0.454,0.167 0.688,0.224 0.762,0.187 1.524,0.378 2.292,0.537 0.888,0.182 1.781,0.338 2.694,0.322 0.082,0 0.169,-0.017 0.243,0.01 0.556,0.177 1.127,0.109 1.693,0.11 7.741,0 15.483,0 23.224,0 0.282,0 0.564,-0.015 0.938,-0.025" clip-rule="evenodd" id="path1469"/>
    </clipPath>
    <clipPath clipPathUnits="userSpaceOnUse" id="clipPath1479">
      <path d="M 0,0 H 1920 V 6144 H 0 Z" id="path1477"/>
    </clipPath>
    <clipPath clipPathUnits="userSpaceOnUse" id="clipPath1489">
      <path d="m 198.916,6089.74 c 0.114,-0.232 0.295,-0.232 0.494,-0.231 2.766,0.01 5.533,0.01 8.3,0.01 0.439,0 0.878,-0.025 1.317,-0.034 0.082,-10e-4 0.163,0.019 0.245,0.024 0.605,0.04 1.184,0.179 1.742,0.402 0.582,0.234 1.155,0.511 1.565,0.964 0.768,0.851 1.264,1.831 1.292,2.991 0.006,0.231 0.155,0.46 0.152,0.69 -0.002,0.23 -0.183,0.439 -0.161,0.693 0.01,0.112 -0.027,0.238 -0.078,0.342 -0.187,0.388 -0.447,0.719 -0.843,0.941 -0.639,0.36 -1.323,0.571 -2.068,0.572 -1.614,0 -3.228,0 -4.842,0 -0.272,0 -0.559,-0.028 -0.813,0.042 -0.374,0.103 -0.744,0.093 -1.12,0.094 -0.754,0 -1.509,0 -2.263,0 -0.126,0 -0.252,0.01 -0.377,0 -0.261,-0.012 -0.432,-0.146 -0.501,-0.383 -0.218,-0.748 -0.429,-1.498 -0.644,-2.247 -0.271,-0.942 -0.544,-1.883 -0.814,-2.824 -0.198,-0.69 -0.393,-1.38 -0.583,-2.044 M 180.8,6067.089 c 0.25,0.812 0.32,1.573 0.629,2.276 0.027,0.459 0.245,0.874 0.308,1.33 0.068,0.488 0.262,0.959 0.388,1.44 0.04,0.154 0.114,0.295 0.101,0.461 -0.006,0.078 -0.003,0.169 0.034,0.236 0.206,0.378 0.235,0.801 0.347,1.202 0.23,0.825 0.444,1.654 0.672,2.479 0.133,0.48 0.286,0.954 0.418,1.434 0.064,0.229 0.059,0.482 0.156,0.693 0.203,0.441 0.121,0.958 0.425,1.365 0.035,0.683 0.325,1.307 0.485,1.961 0.08,0.326 0.139,0.649 0.25,0.972 0.107,0.311 0.195,0.647 0.24,0.971 0.113,0.828 0.466,1.596 0.599,2.418 0.076,0.468 0.263,0.918 0.398,1.377 0.027,0.093 0.05,0.189 0.067,0.285 0.02,0.118 0.002,0.251 0.052,0.354 0.205,0.419 0.22,0.888 0.399,1.312 0.038,0.09 0.046,0.191 0.06,0.289 0.015,0.099 -0.003,0.207 0.034,0.297 0.296,0.722 0.373,1.501 0.652,2.229 0.142,0.37 0.217,0.766 0.311,1.153 0.189,0.775 0.341,1.56 0.566,2.325 0.134,0.457 0.267,0.915 0.399,1.373 0.104,0.362 0.172,0.731 0.284,1.093 0.104,0.337 0.241,0.686 0.272,1.032 0.048,0.546 0.283,1.036 0.397,1.56 0.194,0.892 0.431,1.777 0.658,2.663 0.104,0.407 0.232,0.808 0.337,1.214 0.147,0.576 0.32,1.145 0.44,1.727 0.063,0.307 0.199,0.6 0.307,0.915 0.232,0.099 0.486,0.071 0.734,0.072 1.467,0 2.934,0 4.402,0 5.722,0 11.444,0 17.167,0 0.648,0 1.297,-0.017 1.946,-0.027 0.084,-10e-4 0.183,0.016 0.248,-0.02 0.381,-0.21 0.811,-0.156 1.217,-0.231 1.538,-0.286 3.03,-0.728 4.405,-1.45 1.593,-0.837 2.894,-2.004 3.885,-3.465 0.292,-0.431 0.527,-0.906 0.728,-1.384 0.201,-0.478 0.33,-0.984 0.483,-1.48 0.325,-1.051 0.34,-2.134 0.258,-3.208 -0.041,-0.528 -0.129,-1.065 -0.221,-1.595 -0.127,-0.731 -0.307,-1.445 -0.498,-2.159 -0.228,-0.853 -0.558,-1.675 -0.859,-2.505 -0.15,-0.416 -0.378,-0.789 -0.554,-1.189 -0.168,-0.381 -0.385,-0.745 -0.603,-1.104 -0.627,-1.032 -1.325,-2.017 -2.157,-2.911 -0.724,-0.777 -1.521,-1.477 -2.374,-2.125 -0.652,-0.495 -1.359,-0.906 -2.061,-1.321 -0.491,-0.289 -1.04,-0.495 -1.577,-0.705 -0.522,-0.205 -1.06,-0.374 -1.595,-0.546 -0.87,-0.279 -1.75,-0.519 -2.664,-0.631 -0.494,-0.061 -0.981,-0.182 -1.476,-0.223 -0.499,-0.041 -1.005,-0.021 -1.508,-0.021 -3.961,-10e-4 -7.923,0 -11.885,-10e-4 -0.746,0 -0.765,-0.017 -0.942,-0.679 -0.469,-1.764 -0.944,-3.527 -1.41,-5.292 -0.352,-1.334 -0.69,-2.672 -1.039,-4.007 -0.171,-0.658 -0.351,-1.314 -0.53,-1.97 -0.052,-0.191 -0.169,-0.319 -0.393,-0.325 -0.21,-0.01 -0.419,-0.022 -0.628,-0.022 -3.375,0 -6.75,0 -10.124,0 -0.331,0 -0.664,0 -1.06,0.088" clip-rule="evenodd" id="path1487"/>
    </clipPath>
    <clipPath clipPathUnits="userSpaceOnUse" id="clipPath1497">
      <path d="M 0,0 H 1920 V 6144 H 0 Z" id="path1495"/>
    </clipPath>
    <clipPath clipPathUnits="userSpaceOnUse" id="clipPath1507">
      <path d="m 254.973,6055.72 c -0.224,-0.2 -0.409,-0.222 -0.601,-0.222 -0.503,0 -1.006,0 -1.509,-10e-4 -0.321,0 -0.555,0.07 -0.648,0.459 -0.087,0.364 -0.426,0.443 -0.733,0.514 -0.1,0.023 -0.209,10e-4 -0.314,10e-4 -1.51,0 -3.019,-0.024 -4.528,0.012 -0.69,0.017 -1.092,-0.348 -1.384,-0.91 -0.252,-0.486 -0.049,-1.033 0.53,-1.133 0.123,-0.021 0.25,-0.027 0.375,-0.027 0.419,0 0.838,0 1.257,0.012 0.275,0.01 0.537,-0.031 0.803,-0.109 0.217,-0.065 0.448,-0.102 0.675,-0.108 0.586,-0.014 1.174,0.01 1.761,-0.01 0.479,-0.013 0.964,-0.02 1.435,-0.1 0.342,-0.059 0.696,-0.183 0.992,-0.368 0.672,-0.419 0.941,-1.096 0.876,-1.891 -0.041,-0.494 -0.146,-0.986 -0.265,-1.468 -0.103,-0.42 -0.215,-0.855 -0.418,-1.227 -0.226,-0.414 -0.562,-0.77 -0.982,-0.99 -0.674,-0.352 -1.379,-0.565 -2.144,-0.644 -1.967,-0.205 -3.935,-0.059 -5.902,-0.096 -0.689,-0.013 -1.38,0.067 -2.024,0.355 -0.404,0.181 -0.78,0.402 -1.016,0.832 -0.13,0.238 -0.214,0.467 -0.209,0.737 0.005,0.241 -0.007,0.483 0.012,0.723 0.022,0.262 0.154,0.405 0.402,0.41 0.649,0.013 1.299,0.01 1.949,0 0.201,0 0.342,-0.102 0.438,-0.308 0.159,-0.343 0.439,-0.51 0.812,-0.508 0.209,0 0.418,-0.024 0.627,-0.025 1.027,0 2.054,0 3.081,0 0.168,0 0.338,0.013 0.503,-0.011 0.647,-0.094 1.229,0.076 1.779,0.426 0.288,0.184 0.453,0.462 0.544,0.777 0.124,0.43 -0.098,0.904 -0.508,1.073 -0.226,0.093 -0.481,0.13 -0.726,0.149 -0.435,0.034 -0.875,-0.036 -1.302,0.134 -0.128,0.051 -0.29,0.011 -0.437,0.011 -0.503,0 -1.006,0 -1.509,0 -0.168,0 -0.342,-0.02 -0.502,0.021 -0.516,0.13 -1.039,0.111 -1.559,0.097 -0.446,-0.012 -0.865,0.132 -1.289,0.223 -0.647,0.137 -1.052,0.713 -1.071,1.407 -0.007,0.241 0.01,0.483 -0.005,0.723 -0.059,0.966 0.332,1.778 0.831,2.535 0.338,0.512 0.837,0.836 1.404,1.038 0.714,0.255 1.446,0.364 2.201,0.36 1.845,-0.011 3.69,-0.01 5.534,0 0.592,0 1.17,-0.074 1.703,-0.356 0.658,-0.347 1.085,-0.872 1.088,-1.684 0.001,-0.282 -0.018,-0.564 -0.027,-0.837" clip-rule="evenodd" id="path1505"/>
    </clipPath>
    <clipPath clipPathUnits="userSpaceOnUse" id="clipPath1515">
      <path d="M 0,0 H 1920 V 6144 H 0 Z" id="path1513"/>
    </clipPath>
    <clipPath clipPathUnits="userSpaceOnUse" id="clipPath1525">
      <path d="m 239.621,6054.382 c 0.133,-0.239 0.169,-0.421 0.118,-0.622 -0.105,-0.413 -0.212,-0.826 -0.311,-1.242 -0.052,-0.221 -0.183,-0.326 -0.371,-0.347 -0.152,-0.017 -0.308,-0.011 -0.462,-0.011 -1.986,0 -3.973,0 -5.959,0 -0.135,0 -0.271,0.01 -0.405,0 -0.294,-0.022 -0.373,-0.099 -0.474,-0.45 -0.135,-0.472 -0.277,-0.942 -0.4,-1.418 -0.046,-0.18 -0.046,-0.376 -0.065,-0.55 0.195,-0.178 0.396,-0.104 0.581,-0.104 2.102,-0.01 4.205,0 6.307,-0.01 0.225,0 0.46,0.042 0.675,-0.098 0.028,-0.634 -0.159,-1.201 -0.302,-1.774 -0.056,-0.221 -0.204,-0.364 -0.432,-0.354 -0.096,0 -0.193,0 -0.289,0 -2.912,0 -5.824,0 -8.736,0 -0.228,0 -0.463,-0.029 -0.696,0.144 0.014,0.167 -0.001,0.345 0.047,0.498 0.196,0.632 0.321,1.281 0.462,1.93 0.314,1.445 0.704,2.868 1.052,4.304 0.131,0.54 0.225,1.092 0.346,1.636 0.088,0.397 0.196,0.787 0.29,1.183 0.064,0.27 0.112,0.545 0.18,0.814 0.041,0.163 0.092,0.328 0.165,0.474 0.067,0.135 0.182,0.218 0.335,0.212 0.135,-0.01 0.27,0 0.405,0 2.854,0 5.708,0 8.563,0 0.173,0 0.348,0 0.519,-0.023 0.084,-0.013 0.16,-0.094 0.236,-0.143 -0.011,-0.624 -0.226,-1.164 -0.344,-1.726 -0.039,-0.186 -0.181,-0.28 -0.342,-0.305 -0.133,-0.021 -0.269,-0.015 -0.404,-0.015 -2.005,0 -4.011,0 -6.017,0 -0.231,0 -0.463,0 -0.694,-0.01 -0.312,-0.01 -0.367,-0.053 -0.45,-0.375 -0.101,-0.392 -0.202,-0.786 -0.285,-1.184 -0.024,-0.115 0.01,-0.246 0.019,-0.398 0.618,-0.088 1.212,-0.029 1.805,-0.04 0.597,-0.011 1.195,0 1.793,0 h 1.736 1.804 z" clip-rule="evenodd" id="path1523"/>
    </clipPath>
    <clipPath clipPathUnits="userSpaceOnUse" id="clipPath1533">
      <path d="M 0,0 H 1920 V 6144 H 0 Z" id="path1531"/>
    </clipPath>
    <clipPath clipPathUnits="userSpaceOnUse" id="clipPath1543">
      <path d="m 185.808,6051.225 c 0.671,0.089 1.733,0.075 2.214,-0.028 0.015,-0.33 -0.082,-0.641 -0.159,-0.951 -0.072,-0.293 -0.164,-0.586 -0.286,-0.856 -0.218,-0.484 -0.493,-0.922 -0.919,-1.205 -0.603,-0.399 -1.253,-0.58 -1.945,-0.673 -1.506,-0.201 -3.014,-0.049 -4.52,-0.106 -0.556,-0.022 -1.113,0.015 -1.647,0.166 -0.448,0.126 -0.906,0.257 -1.268,0.662 -0.393,0.438 -0.563,0.974 -0.644,1.558 -0.042,0.298 -0.052,0.624 0.009,0.914 0.134,0.633 0.13,1.297 0.347,1.908 0.014,0.041 0.036,0.083 0.035,0.124 -0.016,0.739 0.306,1.381 0.436,2.075 0.085,0.452 0.222,0.868 0.374,1.284 0.332,0.908 0.855,1.629 1.652,2.035 0.291,0.148 0.607,0.251 0.921,0.311 0.431,0.083 0.871,0.143 1.307,0.148 1.509,0.017 3.018,0 4.528,0.01 0.575,0 1.141,-0.105 1.678,-0.301 0.669,-0.245 1.124,-0.788 1.257,-1.619 0.007,-0.043 0.027,-0.088 0.021,-0.128 -0.081,-0.53 -0.015,-1.099 -0.331,-1.623 -0.139,-0.019 -0.308,-0.07 -0.473,-0.058 -0.568,0.041 -1.144,-0.085 -1.728,0.076 -0.029,0.143 -0.063,0.264 -0.078,0.389 -0.043,0.34 -0.212,0.56 -0.491,0.656 -0.286,0.099 -0.565,0.217 -0.878,0.214 -1.184,-0.014 -2.369,-0.012 -3.553,0 -0.333,0 -0.641,-0.098 -0.951,-0.203 -0.105,-0.035 -0.216,-0.105 -0.29,-0.196 -0.256,-0.317 -0.528,-0.62 -0.663,-1.045 -0.229,-0.721 -0.389,-1.462 -0.537,-2.208 -0.098,-0.492 -0.105,-0.994 -0.148,-1.491 -0.038,-0.443 0.115,-0.737 0.471,-0.941 0.319,-0.183 0.64,-0.261 0.989,-0.26 0.936,0.01 1.872,0 2.809,0 0.191,0 0.382,0 0.572,-0.014 0.49,-0.033 0.941,0.108 1.336,0.433 0.133,0.11 0.229,0.287 0.322,0.449 0.093,0.162 0.161,0.343 0.231,0.496" clip-rule="evenodd" id="path1541"/>
    </clipPath>
    <clipPath clipPathUnits="userSpaceOnUse" id="clipPath1551">
      <path d="M 0,0 H 1920 V 6144 H 0 Z" id="path1549"/>
    </clipPath>
    <clipPath clipPathUnits="userSpaceOnUse" id="clipPath1561">
      <path d="m 167.473,6056.56 c -0.493,-0.688 -0.929,-1.299 -1.366,-1.91 -0.439,-0.612 -0.88,-1.222 -1.313,-1.837 -0.053,-0.076 -0.07,-0.182 -0.101,-0.268 0.07,-0.044 0.103,-0.082 0.136,-0.083 1.105,-0.012 2.21,-0.024 3.315,-0.026 0.108,0 0.215,0.059 0.351,0.098 -0.028,0.245 -0.035,0.463 -0.079,0.672 -0.162,0.757 -0.338,1.511 -0.507,2.267 -0.061,0.273 -0.1,0.554 -0.182,0.82 -0.03,0.099 -0.151,0.163 -0.254,0.267 m -9.056,-9.041 c -0.057,0.172 0.04,0.281 0.127,0.403 0.452,0.634 0.896,1.274 1.345,1.911 0.875,1.239 1.753,2.475 2.625,3.717 1.047,1.492 2.087,2.991 3.133,4.485 0.097,0.137 0.197,0.279 0.319,0.384 0.104,0.089 0.243,0.177 0.367,0.178 1.149,0.01 2.298,0 3.447,-0.01 0.035,0 0.071,-0.032 0.139,-0.066 0.054,-0.128 0.144,-0.276 0.182,-0.439 0.139,-0.606 0.257,-1.218 0.391,-1.825 0.074,-0.335 0.172,-0.664 0.247,-0.999 0.327,-1.476 0.645,-2.954 0.976,-4.429 0.211,-0.939 0.444,-1.873 0.658,-2.811 0.033,-0.142 0.018,-0.297 0.027,-0.479 -0.151,-0.04 -0.278,-0.092 -0.409,-0.105 -0.722,-0.072 -1.791,-0.024 -2.276,0.099 -0.053,0.453 -0.289,0.859 -0.302,1.36 -0.01,0.354 -0.181,0.705 -0.293,1.052 -0.049,0.152 -0.162,0.247 -0.317,0.255 -0.099,0.01 -0.198,0 -0.297,0 -1.705,0 -3.409,-0.01 -5.113,0.01 -0.303,0 -0.522,-0.082 -0.704,-0.367 -0.445,-0.694 -0.908,-1.373 -1.378,-2.045 -0.116,-0.166 -0.254,-0.326 -0.477,-0.358 -0.37,-0.052 -1.986,-0.015 -2.417,0.08" clip-rule="evenodd" id="path1559"/>
    </clipPath>
    <clipPath clipPathUnits="userSpaceOnUse" id="clipPath1569">
      <path d="M 0,0 H 1920 V 6144 H 0 Z" id="path1567"/>
    </clipPath>
    <clipPath clipPathUnits="userSpaceOnUse" id="clipPath1579">
      <path d="m 152.221,6047.502 c -0.626,-0.15 -1.708,-0.133 -2.221,0.04 0.029,0.185 0.047,0.378 0.092,0.562 0.223,0.915 0.402,1.843 0.652,2.751 0.113,0.41 0.166,0.839 0.287,1.253 0.157,0.533 0.242,1.093 0.368,1.637 0.267,1.151 0.542,2.3 0.811,3.45 0.084,0.357 0.167,0.714 0.241,1.074 0.035,0.175 0.139,0.266 0.276,0.298 0.132,0.031 0.27,0.029 0.406,0.029 2.978,0 5.956,0 8.933,-10e-4 0.17,0 0.351,0.043 0.534,-0.119 -0.057,-0.631 -0.245,-1.244 -0.401,-1.902 -0.127,-0.033 -0.254,-0.088 -0.382,-0.095 -0.292,-0.014 -0.584,0 -0.876,0 -1.927,0 -3.853,0 -5.78,0 h -0.575 c -0.241,-0.206 -0.372,-0.447 -0.402,-0.78 -0.025,-0.279 -0.114,-0.55 -0.158,-0.828 -0.049,-0.317 0.06,-0.464 0.334,-0.467 0.175,0 0.35,0.017 0.525,0.017 1.888,0 3.776,0 5.663,0 0.213,0 0.428,-0.019 0.639,-0.049 0.154,-0.023 0.237,-0.161 0.197,-0.336 -0.114,-0.508 -0.234,-1.014 -0.367,-1.516 -0.056,-0.208 -0.205,-0.312 -0.402,-0.315 -0.155,0 -0.311,-0.01 -0.467,-0.01 -2.043,0 -4.087,0 -6.13,0 -0.097,0 -0.195,0.01 -0.292,0 -0.237,-0.017 -0.389,-0.152 -0.454,-0.424 -0.166,-0.694 -0.321,-1.391 -0.486,-2.086 -0.156,-0.654 -0.317,-1.306 -0.479,-1.958 -0.021,-0.082 -0.06,-0.158 -0.086,-0.226" clip-rule="evenodd" id="path1577"/>
    </clipPath>
    <clipPath clipPathUnits="userSpaceOnUse" id="clipPath1587">
      <path d="M 0,0 H 1920 V 6144 H 0 Z" id="path1585"/>
    </clipPath>
    <clipPath clipPathUnits="userSpaceOnUse" id="clipPath1597">
      <path d="m 216.021,6056.453 c -0.233,0.01 -0.429,0.024 -0.625,0.024 -0.996,0 -1.993,0 -2.99,0 -0.26,0 -0.521,0.032 -0.788,0.049 -0.089,0.403 0.186,0.698 0.179,1.039 -0.007,0.369 0.13,0.679 0.398,0.988 0.144,0.013 0.316,0.042 0.489,0.042 3.631,0 7.263,0 10.895,0 0.193,0 0.387,-0.028 0.621,-0.045 -0.054,-0.728 -0.327,-1.345 -0.497,-1.943 -0.277,-0.17 -0.525,-0.129 -0.765,-0.13 -1.107,0 -2.214,0 -3.322,0 -0.568,0 -0.705,-0.102 -0.845,-0.614 -0.223,-0.82 -0.449,-1.64 -0.666,-2.462 -0.417,-1.58 -0.826,-3.162 -1.242,-4.743 -0.083,-0.317 -0.179,-0.631 -0.276,-0.944 -0.04,-0.132 -0.124,-0.244 -0.271,-0.257 -0.77,-0.07 -1.54,-0.088 -2.351,0.02 0.019,0.19 0,0.35 0.055,0.479 0.129,0.304 0.195,0.617 0.242,0.941 0.045,0.297 0.182,0.57 0.244,0.87 0.088,0.419 0.252,0.825 0.335,1.253 0.062,0.318 0.185,0.62 0.218,0.952 0.028,0.276 0.165,0.54 0.248,0.81 0.27,0.874 0.421,1.779 0.739,2.641 0.111,0.303 0.112,0.642 -0.025,1.03" clip-rule="evenodd" id="path1595"/>
    </clipPath>
    <clipPath clipPathUnits="userSpaceOnUse" id="clipPath1605">
      <path d="M 0,0 H 1920 V 6144 H 0 Z" id="path1603"/>
    </clipPath>
    <clipPath clipPathUnits="userSpaceOnUse" id="clipPath1615">
      <path d="m 197.376,6058.558 c -0.065,-0.35 -0.095,-0.607 -0.161,-0.855 -0.365,-1.39 -0.74,-2.778 -1.108,-4.167 -0.089,-0.336 -0.157,-0.679 -0.247,-1.015 -0.195,-0.737 -0.401,-1.471 -0.597,-2.208 -0.164,-0.614 -0.103,-0.693 0.511,-0.693 1.692,0 3.383,0 5.075,0 0.328,0 0.647,-0.02 0.938,-0.191 0.051,-0.527 -0.034,-0.904 -0.455,-1.982 -0.236,-0.016 -0.493,-0.048 -0.75,-0.048 -2.538,0 -5.075,0 -7.612,0 -0.3,0 -0.6,0.029 -0.887,0.043 -0.176,0.305 -0.028,0.542 0.046,0.783 0.075,0.243 0.179,0.479 0.229,0.727 0.051,0.252 0.213,0.479 0.165,0.755 -0.01,0.061 0.002,0.134 0.026,0.193 0.313,0.789 0.413,1.639 0.682,2.442 0.157,0.471 0.224,0.971 0.35,1.453 0.092,0.354 0.248,0.686 0.31,1.054 0.06,0.359 0.203,0.698 0.235,1.072 0.026,0.295 0.144,0.584 0.239,0.87 0.143,0.43 0.273,0.86 0.322,1.316 0.027,0.252 0.182,0.461 0.464,0.47 0.712,0.022 1.424,0.038 2.225,-0.022" clip-rule="evenodd" id="path1613"/>
    </clipPath>
    <clipPath clipPathUnits="userSpaceOnUse" id="clipPath1623">
      <path d="M 0,0 H 1920 V 6144 H 0 Z" id="path1621"/>
    </clipPath>
    <clipPath clipPathUnits="userSpaceOnUse" id="clipPath1633">
      <path d="m 207.955,6047.48 c -0.473,-0.123 -0.964,-0.072 -1.452,-0.054 -0.162,0.01 -0.344,-0.052 -0.483,0.129 -0.054,0.228 0.012,0.434 0.076,0.632 0.052,0.162 0.064,0.351 0.117,0.488 0.206,0.536 0.164,1.146 0.357,1.689 0.138,0.386 0.164,0.838 0.247,1.257 0.172,0.865 0.365,1.724 0.518,2.594 0.1,0.57 0.278,1.111 0.333,1.699 0.034,0.359 0.169,0.7 0.247,1.054 0.068,0.311 0.175,0.61 0.16,0.949 -0.005,0.103 0.037,0.21 0.062,0.314 0.052,0.209 0.172,0.317 0.334,0.354 0.177,0.04 1.431,-0.01 1.677,-0.058 0.093,-0.162 0.04,-0.33 0.006,-0.496 -0.204,-1.009 -0.408,-2.019 -0.613,-3.029 -0.221,-1.092 -0.439,-2.185 -0.663,-3.276 -0.277,-1.346 -0.559,-2.691 -0.841,-4.035 -0.012,-0.061 -0.044,-0.115 -0.082,-0.211" clip-rule="evenodd" id="path1631"/>
    </clipPath>
    <clipPath clipPathUnits="userSpaceOnUse" id="clipPath1641">
      <path d="M 0,0 H 1920 V 6144 H 0 Z" id="path1639"/>
    </clipPath>
    <clipPath clipPathUnits="userSpaceOnUse" id="clipPath1651">
      <path d="m 227,6058.463 c -0.088,-0.485 -0.173,-0.992 -0.273,-1.493 -0.181,-0.907 -0.369,-1.812 -0.559,-2.715 -0.208,-0.988 -0.426,-1.973 -0.632,-2.962 -0.227,-1.096 -0.445,-2.195 -0.668,-3.292 -0.022,-0.105 -0.045,-0.21 -0.077,-0.31 -0.049,-0.154 -0.139,-0.245 -0.273,-0.254 -0.546,-0.038 -1.091,-0.072 -1.658,0.034 -0.09,0.307 -0.072,0.6 0.01,0.892 0.056,0.202 0.168,0.384 0.131,0.619 0.237,0.518 0.149,1.16 0.392,1.677 0.008,0.421 0.142,0.803 0.227,1.201 0.122,0.566 0.225,1.14 0.337,1.71 0.173,0.885 0.343,1.771 0.521,2.654 0.077,0.378 0.163,0.753 0.26,1.123 0.071,0.267 0.149,0.524 0.156,0.816 0.006,0.272 0.121,0.432 0.315,0.435 0.563,0.01 1.126,-0.011 1.69,-0.026 0.025,0 0.05,-0.053 0.101,-0.109" clip-rule="evenodd" id="path1649"/>
    </clipPath>
    <clipPath clipPathUnits="userSpaceOnUse" id="clipPath1659">
      <path d="M 0,0 H 1920 V 6144 H 0 Z" id="path1657"/>
    </clipPath>
    <clipPath clipPathUnits="userSpaceOnUse" id="clipPath1669">
      <path d="m 189.2,6047.526 c 0.038,0.551 0.144,1.049 0.248,1.548 0.174,0.836 0.374,1.662 0.503,2.513 0.059,0.383 0.179,0.75 0.256,1.13 0.166,0.819 0.304,1.647 0.528,2.449 0.129,0.462 0.147,0.972 0.253,1.448 0.144,0.641 0.221,1.312 0.485,1.891 0.399,0.118 1.42,0.128 1.921,0.019 0.032,-0.369 -0.078,-0.715 -0.147,-1.063 -0.153,-0.782 -0.329,-1.556 -0.492,-2.335 -0.409,-1.954 -0.817,-3.909 -1.222,-5.865 -0.099,-0.483 -0.181,-0.973 -0.277,-1.458 -0.04,-0.204 -0.128,-0.344 -0.311,-0.377 -0.323,-0.058 -1.348,-0.018 -1.745,0.1" clip-rule="evenodd" id="path1667"/>
    </clipPath>
    <clipPath clipPathUnits="userSpaceOnUse" id="clipPath1677">
      <path d="M 0,0 H 1920 V 6144 H 0 Z" id="path1675"/>
    </clipPath>
    <clipPath clipPathUnits="userSpaceOnUse" id="clipPath1705">
      <path d="m 168.471,6054.4 c 0.114,-0.106 0.248,-0.172 0.281,-0.272 0.09,-0.271 0.134,-0.557 0.201,-0.835 0.186,-0.77 0.381,-1.537 0.56,-2.309 0.049,-0.212 0.057,-0.435 0.087,-0.683 -0.149,-0.041 -0.269,-0.101 -0.388,-0.101 -1.22,0 -2.441,0.014 -3.662,0.027 -0.036,0 -0.072,0.039 -0.15,0.084 0.034,0.088 0.053,0.196 0.111,0.273 0.479,0.627 0.966,1.248 1.451,1.871 0.483,0.622 0.965,1.244 1.509,1.945" clip-rule="evenodd" id="path1703"/>
    </clipPath>
    <clipPath clipPathUnits="userSpaceOnUse" id="clipPath1713">
      <path d="M 0,0 H 1920 V 6144 H 0 Z" id="path1711"/>
    </clipPath>
  </defs>
  <g id="layer1" transform="translate(-4.165879,-45.911264)">
    <g id="g1411" transform="matrix(0.35277777,0,0,-0.35277777,-21.58681,2201.0307)">
      <g id="g1413" clip-path="url(#clipPath1417)">
        <g id="g1419">
          <g id="g1421" clip-path="url(#clipPath1425)">
            <path d="m 70.8,6056.4 h 68.8 V 6114 H 70.8 Z" style="fill:#133268;fill-opacity:1;fill-rule:nonzero;stroke:none" id="path1427"/>
          </g>
        </g>
      </g>
    </g>
    <g id="g1429" transform="matrix(0.35277777,0,0,-0.35277777,-21.58681,2201.0307)">
      <g id="g1431" clip-path="url(#clipPath1435)">
        <g id="g1437">
          <g id="g1439" clip-path="url(#clipPath1443)">
            <path d="m 68,6041 h 64.6 v 50.6 H 68 Z" style="fill:#f79534;fill-opacity:1;fill-rule:nonzero;stroke:none" id="path1445"/>
          </g>
        </g>
      </g>
    </g>
    <g id="g1447" transform="matrix(0.35277777,0,0,-0.35277777,-21.58681,2201.0307)">
      <g id="g1449" clip-path="url(#clipPath1453)">
        <g id="g1455">
          <g id="g1457" clip-path="url(#clipPath1461)">
            <path d="M 133.8,6062 H 190 v 50.6 h -56.2 z" style="fill:#133268;fill-opacity:1;fill-rule:nonzero;stroke:none" id="path1463"/>
          </g>
        </g>
      </g>
    </g>
    <g id="g1465" transform="matrix(0.35277777,0,0,-0.35277777,-21.58681,2201.0307)">
      <g id="g1467" clip-path="url(#clipPath1471)">
        <g id="g1473">
          <g id="g1475" clip-path="url(#clipPath1479)">
            <path d="m 216.4,6062 h 56.2 v 50.6 h -56.2 z" style="fill:#133268;fill-opacity:1;fill-rule:nonzero;stroke:none" id="path1481"/>
          </g>
        </g>
      </g>
    </g>
    <g id="g1483" transform="matrix(0.35277777,0,0,-0.35277777,-21.58681,2201.0307)">
      <g id="g1485" clip-path="url(#clipPath1489)">
        <g id="g1491">
          <g id="g1493" clip-path="url(#clipPath1497)">
            <path d="M 175.8,6062 H 232 v 50.6 h -56.2 z" style="fill:#133268;fill-opacity:1;fill-rule:nonzero;stroke:none" id="path1499"/>
          </g>
        </g>
      </g>
    </g>
    <g id="g1501" transform="matrix(0.3793501,0,0,-0.3793501,-27.20002,2362.0219)">
      <g id="g1503" clip-path="url(#clipPath1507)">
        <g id="g1509">
          <g id="g1511" clip-path="url(#clipPath1515)">
            <path d="m 236,6042.4 h 24 v 21.2 h -24 z" style="fill:#133268;fill-opacity:1;fill-rule:nonzero;stroke:none" id="path1517"/>
          </g>
        </g>
      </g>
    </g>
    <g id="g1519" transform="matrix(0.3793501,0,0,-0.3793501,-27.20002,2362.0219)">
      <g id="g1521" clip-path="url(#clipPath1525)">
        <g id="g1527">
          <g id="g1529" clip-path="url(#clipPath1533)">
            <path d="M 223.4,6042.4 H 246 v 21.2 h -22.6 z" style="fill:#133268;fill-opacity:1;fill-rule:nonzero;stroke:none" id="path1535"/>
          </g>
        </g>
      </g>
    </g>
    <g id="g1537" transform="matrix(0.3793501,0,0,-0.3793501,-26.670853,2362.0219)">
      <g id="g1539" clip-path="url(#clipPath1543)">
        <g id="g1545">
          <g id="g1547" clip-path="url(#clipPath1551)">
            <path d="m 171.6,6042.4 h 22.6 v 21.2 h -22.6 z" style="fill:#133268;fill-opacity:1;fill-rule:nonzero;stroke:none" id="path1553"/>
          </g>
        </g>
      </g>
    </g>
    <g id="g1555" transform="matrix(0.3793501,0,0,-0.3793501,-25.532802,2362.0219)">
      <g id="g1557" clip-path="url(#clipPath1561)">
        <g id="g1563">
          <g id="g1565" clip-path="url(#clipPath1569)">
            <path d="m 153.4,6042.4 h 24 v 21.2 h -24 z" style="fill:#133268;fill-opacity:1;fill-rule:nonzero;stroke:none" id="path1571"/>
          </g>
        </g>
      </g>
    </g>
    <g id="g1573" transform="matrix(0.3793501,0,0,-0.3793501,-26.101828,2362.0219)">
      <g id="g1575" clip-path="url(#clipPath1579)">
        <g id="g1581">
          <g id="g1583" clip-path="url(#clipPath1587)">
            <path d="m 145,6042.4 h 22.6 v 21.2 H 145 Z" style="fill:#133268;fill-opacity:1;fill-rule:nonzero;stroke:none" id="path1589"/>
          </g>
        </g>
      </g>
    </g>
    <g id="g1591" transform="matrix(0.3793501,0,0,-0.3793501,-27.20002,2362.0219)">
      <g id="g1593" clip-path="url(#clipPath1597)">
        <g id="g1599">
          <g id="g1601" clip-path="url(#clipPath1605)">
            <path d="m 206.6,6042.4 h 22.6 v 21.2 h -22.6 z" style="fill:#133268;fill-opacity:1;fill-rule:nonzero;stroke:none" id="path1607"/>
          </g>
        </g>
      </g>
    </g>
    <g id="g1609" transform="matrix(0.3793501,0,0,-0.3793501,-26.141686,2362.0219)">
      <g id="g1611" clip-path="url(#clipPath1615)">
        <g id="g1617">
          <g id="g1619" clip-path="url(#clipPath1623)">
            <path d="m 187,6042.4 h 19.8 v 21.2 H 187 Z" style="fill:#133268;fill-opacity:1;fill-rule:nonzero;stroke:none" id="path1625"/>
          </g>
        </g>
      </g>
    </g>
    <g id="g1627" transform="matrix(0.40946713,0,0,-0.3793501,-33.404131,2362.0219)">
      <g id="g1629" clip-path="url(#clipPath1633)">
        <g id="g1635">
          <g id="g1637" clip-path="url(#clipPath1641)">
            <path d="m 201,6042.4 h 14.2 v 21.2 H 201 Z" style="fill:#133268;fill-opacity:1;fill-rule:nonzero;stroke:none" id="path1643"/>
          </g>
        </g>
      </g>
    </g>
    <g id="g1645" transform="matrix(0.40948158,0,0,-0.3793501,-33.384148,2362.0219)">
      <g id="g1647" clip-path="url(#clipPath1651)">
        <g id="g1653">
          <g id="g1655" clip-path="url(#clipPath1659)">
            <path d="M 217.8,6042.4 H 232 v 21.2 h -14.2 z" style="fill:#133268;fill-opacity:1;fill-rule:nonzero;stroke:none" id="path1661"/>
          </g>
        </g>
      </g>
    </g>
    <g id="g1663" transform="matrix(0.40950309,0,0,-0.3793501,-32.375799,2362.0219)">
      <g id="g1665" clip-path="url(#clipPath1669)">
        <g id="g1671">
          <g id="g1673" clip-path="url(#clipPath1677)">
            <path d="m 184.2,6042.4 h 14.2 v 21.2 h -14.2 z" style="fill:#133268;fill-opacity:1;fill-rule:nonzero;stroke:none" id="path1679"/>
          </g>
        </g>
      </g>
    </g>
  </g>
</svg>