<?xml version="1.0" encoding="UTF-8"?> <svg xmlns="http://www.w3.org/2000/svg" width="54" height="54" viewBox="0 0 54 54" fill="none"><g clip-path="url(#clip0_245_1308)"><path d="M0 26.5C0 11.8648 11.8648 0 26.5 0C41.1352 0 53 11.8648 53 26.5C53 41.1352 41.1352 53 26.5 53C11.8648 53 0 41.1352 0 26.5ZM26.5 49.9786C39.4689 49.9786 49.9786 39.4689 49.9786 26.5C49.9786 13.5311 39.4639 3.0214 26.5 3.0214C13.5361 3.0214 3.0214 13.5311 3.0214 26.5C3.0214 39.4689 13.5311 49.9786 26.5 49.9786Z" fill="#00B6BE"></path><path d="M24.5527 20.4823L25.4159 22.8613L23.8049 27.273L21.712 21.5213C21.4761 20.7935 20.8086 20.2615 20.0005 20.2615H13.3805L17.6115 31.8904C18.1636 33.1903 19.4484 34.1037 20.9541 34.1037C22.4598 34.1037 23.7246 33.2054 24.2817 31.9205L28.1764 21.2352L28.4474 20.4874C29.1049 18.6002 30.9017 17.2401 33.0146 17.2401H38.7563C40.7588 17.2401 42.38 18.8612 42.38 20.8638C42.38 21.2854 42.3097 21.6869 42.1742 22.0683L38.2243 32.9243C37.2506 35.3836 34.8516 37.1252 32.041 37.1252C30.4801 37.1252 29.0446 36.5881 27.9104 35.6847C28.3972 35.0323 28.7987 34.3145 29.0898 33.5416L29.3307 32.8841C29.9932 33.632 30.9669 34.1037 32.046 34.1037C33.5466 34.1037 34.8365 33.1903 35.3886 31.8904L39.6196 20.2615H32.9996C32.1915 20.2615 31.524 20.7885 31.2881 21.5213L27.1274 32.9594C26.1437 35.4037 23.7547 37.1252 20.9591 37.1252C18.1636 37.1252 15.7545 35.3836 14.7758 32.9243L10.8259 22.0683C10.6904 21.6919 10.6201 21.2904 10.6201 20.8638C10.6201 18.8612 12.2412 17.2401 14.2438 17.2401H19.9855C22.0984 17.2401 23.8952 18.5952 24.5527 20.4874V20.4823Z" fill="#00B6BE"></path></g><defs><clipPath id="clip0_245_1308"><rect width="53" height="53" fill="white"></rect></clipPath></defs></svg> 